<?xml version="1.0" encoding="UTF-8"?>
<!DOCTYPE svg PUBLIC "-//W3C//DTD SVG 1.1//EN" "http://www.w3.org/Graphics/SVG/1.1/DTD/svg11.dtd">
<svg version="1.1" xmlns="http://www.w3.org/2000/svg" xmlns:xlink="http://www.w3.org/1999/xlink" x="0" y="0" width="432" height="331" viewBox="0, 0, 432, 331">
  <g id="Layer_1">
    <g>
      <g>
        <path d="M211.674,3.86 C221.594,2.68 231.614,3 241.564,2.2 C251.954,1.5 262.304,2.86 272.654,3.54 C278.244,4.52 283.854,5.4 289.394,6.63 C294.964,8.44 301.184,9.07 305.764,13.06 C300.364,11.93 295.044,10.39 289.564,9.62 C272.664,7.77 255.594,7.92 238.654,9.11 C226.964,8.9 215.724,12.37 204.284,14.19 C193.064,16.96 181.814,20.07 171.384,25.12 C164.514,28.59 157.254,31.32 150.714,35.45 C142.794,40.49 134.364,44.79 127.104,50.81 C116.574,58.85 106.164,67.16 97.074,76.83 C90.624,83.37 84.204,89.98 78.224,96.96 C72.494,104.89 65.914,112.21 60.814,120.6 C47.744,139.42 37.864,160.28 29.834,181.69 C23.004,202.77 17.974,225.07 20.464,247.34 C21.064,256.51 23.674,265.42 26.784,274.03 C29.474,281.23 33.594,287.77 37.644,294.27 C41.634,300.46 46.154,306.66 52.764,310.26 C50.104,311.04 47.344,311.4 44.584,311.6 C38.214,308.26 33.414,302.57 28.524,297.41 C24.764,293.65 22.234,288.94 19.314,284.54 C13.344,276.58 10.524,266.89 7.074,257.7 C4.734,251.66 4.624,245.11 3.724,238.78 C2.694,233.29 2.214,227.62 3.244,222.1 C4.664,215.4 4.484,208.46 6.204,201.81 C9.664,189.77 12.514,177.52 17.244,165.88 C21.804,155.83 26.084,145.62 31.204,135.83 C34.074,131.65 36.644,127.28 39.084,122.84 C48.814,107.28 59.884,92.56 72.444,79.18 C77.604,72.38 84.224,66.98 90.464,61.24 C99.984,52.94 109.594,44.7 120.364,38.04 C126.384,33.42 133.214,30.09 139.824,26.45 C151.924,18.79 165.864,15.06 179.104,9.98 C182.614,8.95 186.234,8.41 189.754,7.42 C196.904,5.36 204.424,5.4 211.674,3.86 z" fill="#FFCF3E"/>
        <path d="M211.674,3.86 C221.594,2.68 231.614,3 241.564,2.2 C251.954,1.5 262.304,2.86 272.654,3.54 C278.244,4.52 283.854,5.4 289.394,6.63 C294.964,8.44 301.184,9.07 305.764,13.06 C300.364,11.93 295.044,10.39 289.564,9.62 C272.664,7.77 255.594,7.92 238.654,9.11 C226.964,8.9 215.724,12.37 204.284,14.19 C193.064,16.96 181.814,20.07 171.384,25.12 C164.514,28.59 157.254,31.32 150.714,35.45 C142.794,40.49 134.364,44.79 127.104,50.81 C116.574,58.85 106.164,67.16 97.074,76.83 C90.624,83.37 84.204,89.98 78.224,96.96 C72.494,104.89 65.914,112.21 60.814,120.6 C47.744,139.42 37.864,160.28 29.834,181.69 C23.004,202.77 17.974,225.07 20.464,247.34 C21.064,256.51 23.674,265.42 26.784,274.03 C29.474,281.23 33.594,287.77 37.644,294.27 C41.634,300.46 46.154,306.66 52.764,310.26 C50.104,311.04 47.344,311.4 44.584,311.6 C38.214,308.26 33.414,302.57 28.524,297.41 C24.764,293.65 22.234,288.94 19.314,284.54 C13.344,276.58 10.524,266.89 7.074,257.7 C4.734,251.66 4.624,245.11 3.724,238.78 C2.694,233.29 2.214,227.62 3.244,222.1 C4.664,215.4 4.484,208.46 6.204,201.81 C9.664,189.77 12.514,177.52 17.244,165.88 C21.804,155.83 26.084,145.62 31.204,135.83 C34.074,131.65 36.644,127.28 39.084,122.84 C48.814,107.28 59.884,92.56 72.444,79.18 C77.604,72.38 84.224,66.98 90.464,61.24 C99.984,52.94 109.594,44.7 120.364,38.04 C126.384,33.42 133.214,30.09 139.824,26.45 C151.924,18.79 165.864,15.06 179.104,9.98 C182.614,8.95 186.234,8.41 189.754,7.42 C196.904,5.36 204.424,5.4 211.674,3.86 z" fill-opacity="0" stroke="#FFCF3E" stroke-width="0.5"/>
      </g>
      <g>
        <path d="M238.654,9.11 C255.594,7.92 272.664,7.77 289.564,9.62 C295.044,10.39 300.364,11.93 305.764,13.06 C309.774,13.85 313.154,16.24 316.564,18.34 C319.384,20.12 322.334,21.8 324.644,24.26 C329.354,29.21 334.354,34.08 337.324,40.35 C336.874,40.43 335.994,40.59 335.544,40.67 C329.104,35.45 321.614,31.72 313.754,29.18 C305.164,26.5 296.774,22.58 287.624,22.4 C279.794,22.13 270.664,21.4 264.514,27.25 C261.094,29.8 260.044,34.05 259.164,38 C256.034,37.07 252.814,36.43 249.574,36.1 C243.244,35.46 236.964,34.2 230.584,34.26 C221.924,34.12 213.334,36.02 205.224,38.97 C200.674,40.54 197.394,44.21 194.234,47.66 C190.184,46.55 186.124,45.44 181.944,44.96 C175.434,43.94 168.694,43.37 162.264,45.16 C156.074,46.02 152.884,51.67 148.854,55.67 C142.884,59.05 135.504,57.58 129.164,60 C121.754,62.87 114.544,66.91 109.294,72.98 C104.524,77.59 102.064,84.45 103.334,91.03 C92.854,93.09 82.764,98.32 76.264,106.98 C73.254,110.73 70.974,115.39 71.604,120.34 C71.944,127.08 76.724,132.67 82.654,135.46 C73.744,139.22 65.074,144.08 57.974,150.71 C51.844,156.34 47.294,164.05 46.764,172.48 C46.664,175.1 47.454,177.65 48.254,180.12 C43.314,182.13 38.864,185.19 35.254,189.12 C29.684,193.83 26.484,200.69 25.024,207.73 C24.534,210.4 25.314,213.08 25.994,215.65 C28.034,225.76 37.244,231.45 45.204,236.7 C41.614,240.1 37.924,243.51 35.384,247.8 C32.374,253.38 29.074,259.9 31.474,266.33 C34.014,272.55 37.594,278.77 43.344,282.55 C49.714,286.71 56.064,291.43 63.744,292.79 C62.114,299.63 59.094,306.54 52.764,310.26 C46.154,306.66 41.634,300.46 37.644,294.27 C33.594,287.77 29.474,281.23 26.784,274.03 C23.674,265.42 21.064,256.51 20.464,247.34 C17.974,225.07 23.004,202.77 29.834,181.69 C37.864,160.28 47.744,139.42 60.814,120.6 C65.914,112.21 72.494,104.89 78.224,96.96 C84.204,89.98 90.624,83.37 97.074,76.83 C106.164,67.16 116.574,58.85 127.104,50.81 C134.364,44.79 142.794,40.49 150.714,35.45 C157.254,31.32 164.514,28.59 171.384,25.12 C181.814,20.07 193.064,16.96 204.284,14.19 C215.724,12.37 226.964,8.9 238.654,9.11 z" fill="#E69F14"/>
        <path d="M238.654,9.11 C255.594,7.92 272.664,7.77 289.564,9.62 C295.044,10.39 300.364,11.93 305.764,13.06 C309.774,13.85 313.154,16.24 316.564,18.34 C319.384,20.12 322.334,21.8 324.644,24.26 C329.354,29.21 334.354,34.08 337.324,40.35 C336.874,40.43 335.994,40.59 335.544,40.67 C329.104,35.45 321.614,31.72 313.754,29.18 C305.164,26.5 296.774,22.58 287.624,22.4 C279.794,22.13 270.664,21.4 264.514,27.25 C261.094,29.8 260.044,34.05 259.164,38 C256.034,37.07 252.814,36.43 249.574,36.1 C243.244,35.46 236.964,34.2 230.584,34.26 C221.924,34.12 213.334,36.02 205.224,38.97 C200.674,40.54 197.394,44.21 194.234,47.66 C190.184,46.55 186.124,45.44 181.944,44.96 C175.434,43.94 168.694,43.37 162.264,45.16 C156.074,46.02 152.884,51.67 148.854,55.67 C142.884,59.05 135.504,57.58 129.164,60 C121.754,62.87 114.544,66.91 109.294,72.98 C104.524,77.59 102.064,84.45 103.334,91.03 C92.854,93.09 82.764,98.32 76.264,106.98 C73.254,110.73 70.974,115.39 71.604,120.34 C71.944,127.08 76.724,132.67 82.654,135.46 C73.744,139.22 65.074,144.08 57.974,150.71 C51.844,156.34 47.294,164.05 46.764,172.48 C46.664,175.1 47.454,177.65 48.254,180.12 C43.314,182.13 38.864,185.19 35.254,189.12 C29.684,193.83 26.484,200.69 25.024,207.73 C24.534,210.4 25.314,213.08 25.994,215.65 C28.034,225.76 37.244,231.45 45.204,236.7 C41.614,240.1 37.924,243.51 35.384,247.8 C32.374,253.38 29.074,259.9 31.474,266.33 C34.014,272.55 37.594,278.77 43.344,282.55 C49.714,286.71 56.064,291.43 63.744,292.79 C62.114,299.63 59.094,306.54 52.764,310.26 C46.154,306.66 41.634,300.46 37.644,294.27 C33.594,287.77 29.474,281.23 26.784,274.03 C23.674,265.42 21.064,256.51 20.464,247.34 C17.974,225.07 23.004,202.77 29.834,181.69 C37.864,160.28 47.744,139.42 60.814,120.6 C65.914,112.21 72.494,104.89 78.224,96.96 C84.204,89.98 90.624,83.37 97.074,76.83 C106.164,67.16 116.574,58.85 127.104,50.81 C134.364,44.79 142.794,40.49 150.714,35.45 C157.254,31.32 164.514,28.59 171.384,25.12 C181.814,20.07 193.064,16.96 204.284,14.19 C215.724,12.37 226.964,8.9 238.654,9.11 z" fill-opacity="0" stroke="#E69F14" stroke-width="0.5"/>
      </g>
      <g>
        <path d="M264.514,27.25 C270.664,21.4 279.794,22.13 287.624,22.4 C296.774,22.58 305.164,26.5 313.754,29.18 C321.614,31.72 329.104,35.45 335.544,40.67 C323.594,41.85 311.534,40.4 299.564,41.42 C280.294,42.84 260.674,44.91 242.604,52.19 C233.604,55.09 224.644,58.31 216.454,63.12 C201.654,70.07 187.824,79.04 175.014,89.18 C171.534,86.78 167.824,84.77 164.154,82.7 C159.314,80 155.674,75.72 151.364,72.33 C152.354,74.9 153.414,77.54 155.304,79.61 C159.914,84.64 165.154,89.31 171.554,91.92 C164.344,96.77 158.744,103.5 151.774,108.65 C147.644,107.89 143.534,107 139.404,106.28 C140.894,105.81 142.364,105.28 143.844,104.78 C142.504,102.63 141.354,100.13 138.944,98.97 C135.144,96.72 130.594,97.05 126.364,97.31 C126.644,99.47 126.944,101.63 127.264,103.8 C118.674,102.3 110.344,96.96 107.214,88.54 C104.844,83.35 107.824,77.95 109.294,72.98 C114.544,66.91 121.754,62.87 129.164,60 C135.504,57.58 142.884,59.05 148.854,55.67 C152.884,51.67 156.074,46.02 162.264,45.16 C168.824,45.53 175.394,45.49 181.944,44.96 C186.124,45.44 190.184,46.55 194.234,47.66 C195.314,47.94 196.384,48.23 197.464,48.52 C200.704,45.55 204.054,42.54 208.224,40.97 C216.894,37.49 226.434,38.29 235.574,38.14 C243.364,37.97 251.124,39.1 258.914,38.88 L259.164,38 C260.044,34.05 261.094,29.8 264.514,27.25 M268.364,29.16 C264.714,30.76 260.394,33.32 260.694,37.91 C263.374,38.02 266.244,38.63 268.764,37.41 C272.634,35.47 277.374,33.26 277.824,28.37 C274.674,28.19 271.344,27.85 268.364,29.16 M216.734,42.67 C216.784,43.28 216.874,44.51 216.914,45.13 C222.074,48 227.984,48.73 233.674,49.95 C237.204,50.65 240.974,50.55 244.334,49.18 C245.684,48.56 247.794,47.45 246.254,45.84 C237.044,41.72 226.614,41.01 216.734,42.67 M152.624,54.38 C151.354,55.72 151.634,57.75 151.254,59.44 C156.084,59.9 161.194,59 164.944,55.74 C166.854,54.53 166.534,52.03 166.904,50.12 C161.784,49.39 156.534,51.04 152.624,54.38 z" fill="#ACCC00"/>
        <path d="M264.514,27.25 C270.664,21.4 279.794,22.13 287.624,22.4 C296.774,22.58 305.164,26.5 313.754,29.18 C321.614,31.72 329.104,35.45 335.544,40.67 C323.594,41.85 311.534,40.4 299.564,41.42 C280.294,42.84 260.674,44.91 242.604,52.19 C233.604,55.09 224.644,58.31 216.454,63.12 C201.654,70.07 187.824,79.04 175.014,89.18 C171.534,86.78 167.824,84.77 164.154,82.7 C159.314,80 155.674,75.72 151.364,72.33 C152.354,74.9 153.414,77.54 155.304,79.61 C159.914,84.64 165.154,89.31 171.554,91.92 C164.344,96.77 158.744,103.5 151.774,108.65 C147.644,107.89 143.534,107 139.404,106.28 C140.894,105.81 142.364,105.28 143.844,104.78 C142.504,102.63 141.354,100.13 138.944,98.97 C135.144,96.72 130.594,97.05 126.364,97.31 C126.644,99.47 126.944,101.63 127.264,103.8 C118.674,102.3 110.344,96.96 107.214,88.54 C104.844,83.35 107.824,77.95 109.294,72.98 C114.544,66.91 121.754,62.87 129.164,60 C135.504,57.58 142.884,59.05 148.854,55.67 C152.884,51.67 156.074,46.02 162.264,45.16 C168.824,45.53 175.394,45.49 181.944,44.96 C186.124,45.44 190.184,46.55 194.234,47.66 C195.314,47.94 196.384,48.23 197.464,48.52 C200.704,45.55 204.054,42.54 208.224,40.97 C216.894,37.49 226.434,38.29 235.574,38.14 C243.364,37.97 251.124,39.1 258.914,38.88 L259.164,38 C260.044,34.05 261.094,29.8 264.514,27.25 M268.364,29.16 C264.714,30.76 260.394,33.32 260.694,37.91 C263.374,38.02 266.244,38.63 268.764,37.41 C272.634,35.47 277.374,33.26 277.824,28.37 C274.674,28.19 271.344,27.85 268.364,29.16 M216.734,42.67 C216.784,43.28 216.874,44.51 216.914,45.13 C222.074,48 227.984,48.73 233.674,49.95 C237.204,50.65 240.974,50.55 244.334,49.18 C245.684,48.56 247.794,47.45 246.254,45.84 C237.044,41.72 226.614,41.01 216.734,42.67 M152.624,54.38 C151.354,55.72 151.634,57.75 151.254,59.44 C156.084,59.9 161.194,59 164.944,55.74 C166.854,54.53 166.534,52.03 166.904,50.12 C161.784,49.39 156.534,51.04 152.624,54.38 z" fill-opacity="0" stroke="#ACCC00" stroke-width="0.5"/>
      </g>
      <g>
        <path d="M268.364,29.16 C271.344,27.85 274.674,28.19 277.824,28.37 C277.374,33.26 272.634,35.47 268.764,37.41 C266.244,38.63 263.374,38.02 260.694,37.91 C260.394,33.32 264.714,30.76 268.364,29.16 z" fill="#E7F161"/>
        <path d="M268.364,29.16 C271.344,27.85 274.674,28.19 277.824,28.37 C277.374,33.26 272.634,35.47 268.764,37.41 C266.244,38.63 263.374,38.02 260.694,37.91 C260.394,33.32 264.714,30.76 268.364,29.16 z" fill-opacity="0" stroke="#E7F161" stroke-width="0.5"/>
      </g>
      <g>
        <path d="M205.224,38.97 C213.334,36.02 221.924,34.12 230.584,34.26 C236.964,34.2 243.244,35.46 249.574,36.1 C252.814,36.43 256.034,37.07 259.164,38 L258.914,38.88 C251.124,39.1 243.364,37.97 235.574,38.14 C226.434,38.29 216.894,37.49 208.224,40.97 C204.054,42.54 200.704,45.55 197.464,48.52 C196.384,48.23 195.314,47.94 194.234,47.66 C197.394,44.21 200.674,40.54 205.224,38.97 z" fill="#879B01"/>
        <path d="M205.224,38.97 C213.334,36.02 221.924,34.12 230.584,34.26 C236.964,34.2 243.244,35.46 249.574,36.1 C252.814,36.43 256.034,37.07 259.164,38 L258.914,38.88 C251.124,39.1 243.364,37.97 235.574,38.14 C226.434,38.29 216.894,37.49 208.224,40.97 C204.054,42.54 200.704,45.55 197.464,48.52 C196.384,48.23 195.314,47.94 194.234,47.66 C197.394,44.21 200.674,40.54 205.224,38.97 z" fill-opacity="0" stroke="#879B01" stroke-width="0.5"/>
      </g>
      <g>
        <path d="M337.324,40.35 C344.654,42.26 352.344,41.97 359.694,43.9 C370.544,45.39 380.904,49.27 390.534,54.43 C398.124,58.03 404.234,64.09 409.524,70.49 C400.104,66.04 391.104,60.48 380.974,57.74 C366.804,54.11 352.214,52.24 337.584,52.25 C312.374,52.17 286.794,53.21 262.434,60.25 C250.804,64.41 238.894,68.01 227.884,73.69 C218.034,79.01 207.914,83.94 198.934,90.7 C187.504,97.98 177.104,106.72 167.114,115.84 C157.094,124.17 148.874,134.31 140.214,143.96 C126.724,160.27 115.004,178 104.834,196.56 C100.404,205.02 97.004,213.96 92.994,222.61 C88.984,231.97 86.254,241.82 83.754,251.67 C77.374,269.97 78.824,289.82 73.344,308.33 C71.434,314.03 67.154,318.33 62.714,322.17 C56.254,319.47 49.584,316.68 44.584,311.6 C47.344,311.4 50.104,311.04 52.764,310.26 C59.094,306.54 62.114,299.63 63.744,292.79 C65.654,287.05 66.434,281.03 66.894,275.04 C68.114,265.21 70.184,255.52 71.864,245.78 C73.184,240.64 74.384,235.47 75.924,230.4 C78.164,223.51 79.974,216.43 83.174,209.9 C84.924,206.23 86.444,202.48 87.964,198.72 C90.564,192.05 94.214,185.9 97.894,179.79 C100.914,174.04 103.884,168.25 107.554,162.89 C110.804,158.18 113.974,153.43 117.274,148.77 C122.974,141.86 127.654,134.12 134.114,127.85 C139.044,122.27 144.114,116.81 149.074,111.25 C149.934,110.34 150.834,109.47 151.774,108.65 C158.744,103.5 164.344,96.77 171.554,91.92 C172.714,91.01 173.864,90.09 175.014,89.18 C187.824,79.04 201.654,70.07 216.454,63.12 C224.644,58.31 233.604,55.09 242.604,52.19 C260.674,44.91 280.294,42.84 299.564,41.42 C311.534,40.4 323.594,41.85 335.544,40.67 C335.994,40.59 336.874,40.43 337.324,40.35 z" fill="#FFE76F"/>
        <path d="M337.324,40.35 C344.654,42.26 352.344,41.97 359.694,43.9 C370.544,45.39 380.904,49.27 390.534,54.43 C398.124,58.03 404.234,64.09 409.524,70.49 C400.104,66.04 391.104,60.48 380.974,57.74 C366.804,54.11 352.214,52.24 337.584,52.25 C312.374,52.17 286.794,53.21 262.434,60.25 C250.804,64.41 238.894,68.01 227.884,73.69 C218.034,79.01 207.914,83.94 198.934,90.7 C187.504,97.98 177.104,106.72 167.114,115.84 C157.094,124.17 148.874,134.31 140.214,143.96 C126.724,160.27 115.004,178 104.834,196.56 C100.404,205.02 97.004,213.96 92.994,222.61 C88.984,231.97 86.254,241.82 83.754,251.67 C77.374,269.97 78.824,289.82 73.344,308.33 C71.434,314.03 67.154,318.33 62.714,322.17 C56.254,319.47 49.584,316.68 44.584,311.6 C47.344,311.4 50.104,311.04 52.764,310.26 C59.094,306.54 62.114,299.63 63.744,292.79 C65.654,287.05 66.434,281.03 66.894,275.04 C68.114,265.21 70.184,255.52 71.864,245.78 C73.184,240.64 74.384,235.47 75.924,230.4 C78.164,223.51 79.974,216.43 83.174,209.9 C84.924,206.23 86.444,202.48 87.964,198.72 C90.564,192.05 94.214,185.9 97.894,179.79 C100.914,174.04 103.884,168.25 107.554,162.89 C110.804,158.18 113.974,153.43 117.274,148.77 C122.974,141.86 127.654,134.12 134.114,127.85 C139.044,122.27 144.114,116.81 149.074,111.25 C149.934,110.34 150.834,109.47 151.774,108.65 C158.744,103.5 164.344,96.77 171.554,91.92 C172.714,91.01 173.864,90.09 175.014,89.18 C187.824,79.04 201.654,70.07 216.454,63.12 C224.644,58.31 233.604,55.09 242.604,52.19 C260.674,44.91 280.294,42.84 299.564,41.42 C311.534,40.4 323.594,41.85 335.544,40.67 C335.994,40.59 336.874,40.43 337.324,40.35 z" fill-opacity="0" stroke="#FFE76F" stroke-width="0.5"/>
      </g>
      <g>
        <path d="M216.734,42.67 C226.614,41.01 237.044,41.72 246.254,45.84 C247.794,47.45 245.684,48.56 244.334,49.18 C240.974,50.55 237.204,50.65 233.674,49.95 C227.984,48.73 222.074,48 216.914,45.13 C216.874,44.51 216.784,43.28 216.734,42.67 z" fill="#E6F160"/>
        <path d="M216.734,42.67 C226.614,41.01 237.044,41.72 246.254,45.84 C247.794,47.45 245.684,48.56 244.334,49.18 C240.974,50.55 237.204,50.65 233.674,49.95 C227.984,48.73 222.074,48 216.914,45.13 C216.874,44.51 216.784,43.28 216.734,42.67 z" fill-opacity="0" stroke="#E6F160" stroke-width="0.5"/>
      </g>
      <g>
        <path d="M162.264,45.16 C168.694,43.37 175.434,43.94 181.944,44.96 C175.394,45.49 168.824,45.53 162.264,45.16 z" fill="#9AA504"/>
        <path d="M162.264,45.16 C168.694,43.37 175.434,43.94 181.944,44.96 C175.394,45.49 168.824,45.53 162.264,45.16 z" fill-opacity="0" stroke="#9AA504" stroke-width="0.5"/>
      </g>
      <g>
        <path d="M152.624,54.38 C156.534,51.04 161.784,49.39 166.904,50.12 C166.534,52.03 166.854,54.53 164.944,55.74 C161.194,59 156.084,59.9 151.254,59.44 C151.634,57.75 151.354,55.72 152.624,54.38 z" fill="#E6F160"/>
        <path d="M152.624,54.38 C156.534,51.04 161.784,49.39 166.904,50.12 C166.534,52.03 166.854,54.53 164.944,55.74 C161.194,59 156.084,59.9 151.254,59.44 C151.634,57.75 151.354,55.72 152.624,54.38 z" fill-opacity="0" stroke="#E6F160" stroke-width="0.5"/>
      </g>
      <g>
        <path d="M262.434,60.25 C286.794,53.21 312.374,52.17 337.584,52.25 C352.214,52.24 366.804,54.11 380.974,57.74 C391.104,60.48 400.104,66.04 409.524,70.49 C413.214,72.92 414.854,77.22 417.244,80.75 C419.054,83.79 421.744,86.86 421.394,90.64 C419.454,101.79 421.724,113.14 419.944,124.31 C417.514,121.95 415.354,119.07 412.164,117.73 C408.694,117.03 404.914,118.89 402.994,121.79 C399.684,126.98 404.274,135.01 410.534,134.4 C415.044,134.61 417.554,130.38 420.144,127.41 C419.224,137.67 417.654,147.89 415.464,157.96 C412.164,158.26 408.704,158.09 405.614,159.41 C402.354,161.56 401.834,166.27 403.194,169.68 C404.914,172.36 408.084,173.61 410.224,175.91 C411.104,178.47 409.694,181.17 409.204,183.71 C404.654,184.33 398.004,183.55 396.224,189 C394.094,193.19 397.894,196.77 399.314,200.45 C398.814,204.06 395.624,206.5 393.434,209.18 C384.134,220.25 371.864,228.56 358.744,234.48 C356.174,235.62 353.584,236.9 350.764,237.27 C347.144,237.54 343.584,236.12 339.974,236.62 C336.844,238.41 335.874,242.58 332.644,244.31 C329.884,245.63 326.884,246.32 323.944,247.12 C321.074,246.49 318.144,245.47 315.184,245.92 C312.284,246.49 310.724,249.29 309.254,251.57 C306.274,252.29 303.244,252.85 300.204,253.26 C298.554,250.76 297.134,247.98 294.734,246.13 C291.844,244.28 287.774,246.18 286.474,249.14 C285.524,251.69 285.404,254.46 285.054,257.15 C280.394,258.39 275.794,259.9 271.034,260.69 C266.844,261.4 263.114,258.38 258.984,258.66 C255.254,260.36 253.574,264.92 249.524,266.14 C238.324,269.19 226.934,271.55 215.724,274.52 C206.144,277.85 196.104,279.43 186.364,282.17 C183.484,282.85 180.594,283.8 177.594,283.73 C173.754,282.45 171.264,277.63 166.714,278.39 C160.834,279.15 160.764,287.5 155.144,288.79 C145.774,291.57 135.954,292.17 126.314,293.45 C126.904,289.93 128.294,285.53 125.084,282.83 C121.994,279.11 115.604,279.98 113.204,283.98 C112.224,287.54 113.104,291.27 113.404,294.87 C108.844,295.33 104.314,295.99 99.814,296.85 C96.784,294.3 93.474,290.21 89.004,291.67 C84.924,292.39 85.124,297.12 84.354,300.25 C83.814,305.65 77.394,306.55 73.344,308.33 C78.824,289.82 77.374,269.97 83.754,251.67 C86.254,241.82 88.984,231.97 92.994,222.61 C97.004,213.96 100.404,205.02 104.834,196.56 C115.004,178 126.724,160.27 140.214,143.96 C148.874,134.31 157.094,124.17 167.114,115.84 C177.104,106.72 187.504,97.98 198.934,90.7 C207.914,83.94 218.034,79.01 227.884,73.69 C238.894,68.01 250.804,64.41 262.434,60.25 M356.004,67.74 C349.034,70.21 349.994,82.61 357.664,83.34 C362.824,84.73 367.914,80.35 368.494,75.35 C368.174,72.65 366.874,69.9 364.634,68.3 C362.034,66.89 358.764,66.74 356.004,67.74 M390.874,71.76 C387.824,72.04 384.544,73.98 384.564,77.4 C383.694,81.74 387.424,85.57 391.584,85.96 C394.864,85.35 398.924,83.2 398.684,79.32 C399.424,74.93 395.014,71.28 390.874,71.76 M325.044,75.72 C318.844,77.52 318.574,88.97 325.634,89.42 C329.354,90.24 334.194,88.51 334.634,84.26 C336.034,79.04 329.804,74.12 325.044,75.72 M263.994,80.72 C260.094,82.75 258.244,88.26 260.934,91.99 C263.014,95.92 268.264,96.18 271.964,94.69 C276.214,91.98 276.704,85.2 273.244,81.66 C270.584,79.88 266.964,79.67 263.994,80.72 M294.024,84.77 C291.474,86.19 289.464,88.7 288.724,91.54 C287.934,94.7 290.524,97.3 292.784,99.09 C297.434,102.94 305.934,98.47 304.804,92.32 C305.174,86.87 299.064,82.41 294.024,84.77 M234.974,89.76 C232.354,90.39 229.924,92.09 228.784,94.58 C225.934,99.22 230.554,105.42 235.614,105.43 C240.374,105.97 244.714,101.07 243.654,96.4 C243.384,92.26 238.904,89.18 234.974,89.76 M384.974,98.68 C381.344,99.73 378.574,103.39 379.524,107.25 C379.674,114.98 392.884,114.42 393.674,107.25 C394.104,102.76 389.824,97.25 384.974,98.68 M316.034,103.74 C311.474,105.76 311.414,112.33 314.004,115.91 C318.694,120 326.644,115.72 326.114,109.65 C325.394,105.09 320.404,101.86 316.034,103.74 M347.974,106.7 C344.834,107.99 341.504,110.64 341.524,114.35 C340.994,118.43 344.494,121.61 347.974,122.96 C353.634,124.75 359.754,119.22 359.364,113.55 C357.944,109.02 352.854,104.92 347.974,106.7 M280.954,108.67 C278.104,109.28 274.914,111.19 274.594,114.38 C274.314,116.54 274.284,118.82 275.024,120.91 C277.414,125.58 284.734,127.21 288.454,123.21 C291.354,120.61 291.194,116.16 290.154,112.74 C288.504,109.52 284.394,108.05 280.954,108.67 M246.934,111.64 C243.704,112.91 241.174,116.56 241.754,120.08 C243.154,123.14 245.774,125.71 248.804,127.16 C254.644,127.49 260.034,120.5 256.824,115.06 C255.174,111.34 250.494,110.39 246.934,111.64 M198.974,113.63 C194.044,114.93 191.664,121.04 194.694,125.24 C197.394,130.1 205.514,129.19 207.174,123.91 C209.834,118.75 204.454,112.16 198.974,113.63 M304.734,132.86 C302.364,133 299.174,133.75 298.694,136.52 C298.174,139.27 298.064,142.63 300.014,144.89 C304.444,148.63 312.404,145.22 312.494,139.33 C312.474,135.3 308.604,132.39 304.734,132.86 M327.974,132.7 C323.034,133.66 322.454,139.82 324.284,143.62 C327.994,147.78 335.734,146.58 337.444,141.11 C339.164,135.67 332.794,131.44 327.974,132.7 M273.954,135.61 C270.544,135.92 268.324,139.06 268.394,142.36 C267.804,146.51 271.744,149.92 275.584,150.31 C279.084,149.93 282.784,147.09 282.734,143.31 C283.364,138.69 278.374,134.52 273.954,135.61 M218.014,136.75 C212.744,139.36 211.954,147.57 217.114,150.77 C222.814,155.99 232.434,147.53 228.824,141.08 C227.194,136.87 222.064,135.11 218.014,136.75 M384.934,136.65 C381.134,137.74 378.714,142.14 379.974,145.92 C380.874,148.4 382.694,150.61 385.044,151.86 C391.244,154.65 399.044,147.21 395.984,140.94 C394.774,136.14 388.994,135.29 384.934,136.65 M179.974,137.67 C177.104,138.65 175.104,141.49 174.594,144.41 C174.454,147.22 176.114,149.92 178.334,151.56 C182.034,153.67 187.884,151.72 188.484,147.15 C190.234,142.2 185.264,135.8 179.974,137.67 M150.974,145.7 C148.834,146.71 148.124,149.36 147.764,151.52 C147.064,156.18 152.314,160.65 156.754,158.57 C162.104,157.13 163.134,149.29 158.864,146.08 C156.484,144.78 153.504,144.93 150.974,145.7 M247.064,147.79 C244.574,149.24 242.164,151.49 241.574,154.42 C240.954,158.44 244.294,161.98 247.994,162.96 C252.664,164.49 258.354,160.37 257.794,155.33 C258.344,149.91 251.874,145.72 247.064,147.79 M279.904,153.81 C277.144,154.57 274.034,156.23 273.424,159.3 C272.574,162.58 273.314,166.69 276.394,168.58 C281.034,171.97 289.124,168.4 288.684,162.31 C289.564,157.3 284.284,153.83 279.904,153.81 M344.904,156.8 C341.354,157.68 337.754,160.45 337.634,164.4 C337.214,169.33 342.744,173.28 347.344,172.16 C350.884,170.99 353.474,167.17 352.684,163.41 C352.454,159.58 348.564,156.61 344.904,156.8 M370.024,162.8 C364.794,165.21 363.734,172.49 366.954,176.92 C368.744,178.59 371.174,179.61 373.614,179.86 C378.264,179.4 382.064,175.03 382.334,170.45 C381.474,167.46 379.684,164.61 377.164,162.74 C374.874,162.01 372.294,161.99 370.024,162.8 M315.974,163.7 C311.704,164.93 308.654,169.97 310.574,174.24 C312.224,181.48 325.034,180.68 325.474,173.12 C327.024,167.56 321.444,162.19 315.974,163.7 M182.054,164.75 C177.944,166.12 175.304,170.78 176.924,174.96 C179.214,180.7 189.114,180.84 190.824,174.51 C193.254,169.27 187.194,163.31 182.054,164.75 M231.034,164.75 C225.424,166.6 224.804,175.33 229.564,178.41 C233.544,181.56 240.104,178.5 241.044,173.75 C242.774,168.31 236.214,162.54 231.034,164.75 M156.004,172.74 C151.654,174.96 150.474,181.49 153.834,185.08 C156.794,187.66 161.594,187.81 164.754,185.5 C167.154,182.97 167.204,178.89 166.154,175.75 C164.524,171.89 159.474,171.53 156.004,172.74 M202.724,174.86 C199.794,175.1 197.344,177.36 196.224,179.99 C194.074,185.17 199.604,191.97 205.184,189.97 C210.024,189.07 212.754,182.97 210.234,178.77 C208.864,176.04 205.674,174.69 202.724,174.86 M128.054,181.75 C124.934,183.12 122.164,185.95 121.644,189.41 C121.704,192.65 123.854,195.79 126.704,197.29 C130.884,199.36 136.284,196.92 137.954,192.68 C140.604,186.94 133.944,179.69 128.054,181.75 M347.004,183.76 C342.604,185.83 342.394,192.32 345.104,195.83 C349.334,201.45 360.564,197.67 359.694,190.35 C359.524,184.2 352.064,181.53 347.004,183.76 M382.954,183.7 C378.784,184.14 376.044,188.29 376.444,192.31 C376.364,196.71 380.224,200.53 384.614,200.45 C389.024,200.97 392.044,196.76 393.374,193.11 C393.764,187.67 388.574,182.28 382.954,183.7 M304.924,185.74 C303.174,186 301.414,186.62 300.054,187.78 C296.314,192.72 298.544,202.2 305.594,202.44 C312.184,203.82 316.184,195.47 313.794,190.13 C312.824,186.33 308.314,185.37 304.924,185.74 M273.924,186.71 C271.064,187.29 268.404,189.18 267.054,191.79 C265.474,195.77 267.164,200.89 271.004,202.91 C273.074,203.68 275.374,203.63 277.544,203.33 C280.984,202.95 282.974,199.35 283.304,196.22 C283.254,191.38 279.354,185.61 273.924,186.71 M171.974,191.72 C167.894,194.17 167.094,200.9 170.874,204.01 C175.594,207.99 184.854,204.11 183.654,197.41 C183.454,191.66 176.484,190.01 171.974,191.72 M226.924,194.65 C223.194,196.52 220.844,201.84 223.184,205.66 C225.654,211.65 235.354,211.49 238.174,205.91 C239.204,202.73 239.054,198.74 236.774,196.13 C234.144,193.8 230.154,193.75 226.924,194.65 M370.974,197.73 C368.074,198.6 365.414,201.11 365.394,204.32 C365.144,207.23 365.294,211.23 368.674,212.25 C373.614,215.17 381.484,211.55 380.684,205.35 C380.964,200.27 375.744,196.47 370.974,197.73 M128.034,205.78 C123.174,207.84 121.924,214.7 125.384,218.53 C128.014,220.88 132.014,220.89 135.244,220 C138.134,219.25 138.844,215.91 138.844,213.33 C138.814,211.14 138.784,208.47 136.844,207.03 C134.404,205.16 130.894,204.61 128.034,205.78 M255.994,205.73 C252.184,207.42 251.864,212.43 253.004,215.92 C255.744,221.33 264.354,221.26 267.234,215.98 C269.934,212.52 267.684,207.58 264.174,205.72 C261.574,204.78 258.584,204.78 255.994,205.73 M286.924,208.71 C282.374,209.17 278.584,214.33 281.374,218.55 C284.084,223.72 292.104,223.77 294.794,218.55 C298.104,213.46 292.164,207.6 286.924,208.71 M192.004,212.71 C187.334,216.05 187.314,223.6 192.014,226.94 C197.374,229.35 203.984,224.21 202.614,218.41 C202.494,213.14 196.304,211.1 192.004,212.71 M353.024,214.75 C346.774,217.52 346.534,228.27 353.234,230.65 C359.124,233.51 366.434,227.74 365.564,221.41 C364.404,216.15 358.144,212.37 353.024,214.75 M213.994,216.72 C210.794,218.48 208.794,222.49 209.734,226.1 C210.944,229.68 214.764,232.18 218.574,231.53 C223.974,231.64 228.134,224.46 225.014,219.94 C223.074,215.96 217.754,215.4 213.994,216.72 M162.004,220.76 C158.784,222.48 156.804,226.52 157.704,230.11 C158.764,232.86 161.294,234.89 163.984,235.96 C167.014,236.94 169.934,234.76 171.904,232.67 C175.334,229.14 173.254,222.83 169.164,220.78 C166.874,220.02 164.294,220 162.004,220.76 M100.044,222.76 C95.284,224.88 94.084,231.25 96.364,235.58 C97.994,237.76 100.684,239.5 103.504,239.31 C106.834,238.57 110.424,236.26 110.904,232.62 C111.324,229.69 110.684,226.43 108.744,224.16 C106.264,222.52 102.894,221.75 100.044,222.76 M260.974,224.66 C257.444,225.93 254.434,229.39 254.584,233.27 C255.234,238.47 260.864,243.24 266.144,240.88 C271.364,239.27 273.204,232.64 270.814,228.08 C268.574,225.24 264.494,223.64 260.974,224.66 M131.944,227.67 C124.414,230.16 128.134,242.47 135.494,241.32 C141.604,241.26 143.604,232.88 140.154,228.76 C137.924,226.89 134.614,226.86 131.944,227.67 M278.004,227.74 C274.834,230.07 273.394,234.81 275.704,238.24 C278.274,243.47 287.024,243.51 289.164,237.86 C292.004,234.22 289.424,228.81 285.394,227.46 C282.974,226.91 280.354,226.92 278.004,227.74 M315.024,228.76 C313.094,229.76 311.434,231.47 310.714,233.55 C310.094,236.62 311.894,239.79 314.344,241.56 C318.654,244.16 325.634,240.82 324.784,235.33 C325.604,230.05 319.504,226.58 315.024,228.76 M230.994,236.71 C227.074,238.59 225.984,244 228.374,247.51 C230.494,251.21 235.984,251.29 239.074,248.81 C242.894,246.08 242.274,239.86 238.864,237.07 C236.514,235.75 233.494,235.86 230.994,236.71 M130.954,249.63 C127.594,250.47 124.624,253.71 124.634,257.26 C125.344,261.99 131.254,266.45 135.794,263.53 C138.044,261.85 140.314,259.39 140.374,256.45 C139.474,252.39 135.284,248.63 130.954,249.63 M189.934,252.67 C187.304,253.69 185.504,256.52 185.534,259.34 C185.734,263.32 189.284,267.36 193.564,266.5 C200.234,266.8 202.934,256.87 197.834,253.1 C195.454,251.79 192.474,251.95 189.934,252.67 M230.004,252.75 C225.384,254.84 225.284,261.98 228.704,265.2 C232.224,269.21 240.614,267.89 241.454,262.17 C241.964,259.22 242.144,255.39 239.604,253.32 C236.704,251.77 233.074,251.79 230.004,252.75 M155.054,253.77 C152.544,255.17 150.494,257.61 149.784,260.43 C149.934,262.88 151.114,265.31 152.934,266.96 C156.784,269.87 163.164,268.26 164.934,263.69 C167.614,258.08 160.574,251.37 155.054,253.77 M95.984,261.71 C92.564,263.62 91.334,268.9 93.984,271.95 C95.404,273.61 97.374,274.95 99.584,275.23 C102.964,274.81 106.324,271.97 106.174,268.35 C106.104,266.1 105.624,263.57 103.874,262.02 C101.464,260.82 98.504,260.89 95.984,261.71 z" fill="#FFCF3E"/>
        <path d="M262.434,60.25 C286.794,53.21 312.374,52.17 337.584,52.25 C352.214,52.24 366.804,54.11 380.974,57.74 C391.104,60.48 400.104,66.04 409.524,70.49 C413.214,72.92 414.854,77.22 417.244,80.75 C419.054,83.79 421.744,86.86 421.394,90.64 C419.454,101.79 421.724,113.14 419.944,124.31 C417.514,121.95 415.354,119.07 412.164,117.73 C408.694,117.03 404.914,118.89 402.994,121.79 C399.684,126.98 404.274,135.01 410.534,134.4 C415.044,134.61 417.554,130.38 420.144,127.41 C419.224,137.67 417.654,147.89 415.464,157.96 C412.164,158.26 408.704,158.09 405.614,159.41 C402.354,161.56 401.834,166.27 403.194,169.68 C404.914,172.36 408.084,173.61 410.224,175.91 C411.104,178.47 409.694,181.17 409.204,183.71 C404.654,184.33 398.004,183.55 396.224,189 C394.094,193.19 397.894,196.77 399.314,200.45 C398.814,204.06 395.624,206.5 393.434,209.18 C384.134,220.25 371.864,228.56 358.744,234.48 C356.174,235.62 353.584,236.9 350.764,237.27 C347.144,237.54 343.584,236.12 339.974,236.62 C336.844,238.41 335.874,242.58 332.644,244.31 C329.884,245.63 326.884,246.32 323.944,247.12 C321.074,246.49 318.144,245.47 315.184,245.92 C312.284,246.49 310.724,249.29 309.254,251.57 C306.274,252.29 303.244,252.85 300.204,253.26 C298.554,250.76 297.134,247.98 294.734,246.13 C291.844,244.28 287.774,246.18 286.474,249.14 C285.524,251.69 285.404,254.46 285.054,257.15 C280.394,258.39 275.794,259.9 271.034,260.69 C266.844,261.4 263.114,258.38 258.984,258.66 C255.254,260.36 253.574,264.92 249.524,266.14 C238.324,269.19 226.934,271.55 215.724,274.52 C206.144,277.85 196.104,279.43 186.364,282.17 C183.484,282.85 180.594,283.8 177.594,283.73 C173.754,282.45 171.264,277.63 166.714,278.39 C160.834,279.15 160.764,287.5 155.144,288.79 C145.774,291.57 135.954,292.17 126.314,293.45 C126.904,289.93 128.294,285.53 125.084,282.83 C121.994,279.11 115.604,279.98 113.204,283.98 C112.224,287.54 113.104,291.27 113.404,294.87 C108.844,295.33 104.314,295.99 99.814,296.85 C96.784,294.3 93.474,290.21 89.004,291.67 C84.924,292.39 85.124,297.12 84.354,300.25 C83.814,305.65 77.394,306.55 73.344,308.33 C78.824,289.82 77.374,269.97 83.754,251.67 C86.254,241.82 88.984,231.97 92.994,222.61 C97.004,213.96 100.404,205.02 104.834,196.56 C115.004,178 126.724,160.27 140.214,143.96 C148.874,134.31 157.094,124.17 167.114,115.84 C177.104,106.72 187.504,97.98 198.934,90.7 C207.914,83.94 218.034,79.01 227.884,73.69 C238.894,68.01 250.804,64.41 262.434,60.25 M356.004,67.74 C349.034,70.21 349.994,82.61 357.664,83.34 C362.824,84.73 367.914,80.35 368.494,75.35 C368.174,72.65 366.874,69.9 364.634,68.3 C362.034,66.89 358.764,66.74 356.004,67.74 M390.874,71.76 C387.824,72.04 384.544,73.98 384.564,77.4 C383.694,81.74 387.424,85.57 391.584,85.96 C394.864,85.35 398.924,83.2 398.684,79.32 C399.424,74.93 395.014,71.28 390.874,71.76 M325.044,75.72 C318.844,77.52 318.574,88.97 325.634,89.42 C329.354,90.24 334.194,88.51 334.634,84.26 C336.034,79.04 329.804,74.12 325.044,75.72 M263.994,80.72 C260.094,82.75 258.244,88.26 260.934,91.99 C263.014,95.92 268.264,96.18 271.964,94.69 C276.214,91.98 276.704,85.2 273.244,81.66 C270.584,79.88 266.964,79.67 263.994,80.72 M294.024,84.77 C291.474,86.19 289.464,88.7 288.724,91.54 C287.934,94.7 290.524,97.3 292.784,99.09 C297.434,102.94 305.934,98.47 304.804,92.32 C305.174,86.87 299.064,82.41 294.024,84.77 M234.974,89.76 C232.354,90.39 229.924,92.09 228.784,94.58 C225.934,99.22 230.554,105.42 235.614,105.43 C240.374,105.97 244.714,101.07 243.654,96.4 C243.384,92.26 238.904,89.18 234.974,89.76 M384.974,98.68 C381.344,99.73 378.574,103.39 379.524,107.25 C379.674,114.98 392.884,114.42 393.674,107.25 C394.104,102.76 389.824,97.25 384.974,98.68 M316.034,103.74 C311.474,105.76 311.414,112.33 314.004,115.91 C318.694,120 326.644,115.72 326.114,109.65 C325.394,105.09 320.404,101.86 316.034,103.74 M347.974,106.7 C344.834,107.99 341.504,110.64 341.524,114.35 C340.994,118.43 344.494,121.61 347.974,122.96 C353.634,124.75 359.754,119.22 359.364,113.55 C357.944,109.02 352.854,104.92 347.974,106.7 M280.954,108.67 C278.104,109.28 274.914,111.19 274.594,114.38 C274.314,116.54 274.284,118.82 275.024,120.91 C277.414,125.58 284.734,127.21 288.454,123.21 C291.354,120.61 291.194,116.16 290.154,112.74 C288.504,109.52 284.394,108.05 280.954,108.67 M246.934,111.64 C243.704,112.91 241.174,116.56 241.754,120.08 C243.154,123.14 245.774,125.71 248.804,127.16 C254.644,127.49 260.034,120.5 256.824,115.06 C255.174,111.34 250.494,110.39 246.934,111.64 M198.974,113.63 C194.044,114.93 191.664,121.04 194.694,125.24 C197.394,130.1 205.514,129.19 207.174,123.91 C209.834,118.75 204.454,112.16 198.974,113.63 M304.734,132.86 C302.364,133 299.174,133.75 298.694,136.52 C298.174,139.27 298.064,142.63 300.014,144.89 C304.444,148.63 312.404,145.22 312.494,139.33 C312.474,135.3 308.604,132.39 304.734,132.86 M327.974,132.7 C323.034,133.66 322.454,139.82 324.284,143.62 C327.994,147.78 335.734,146.58 337.444,141.11 C339.164,135.67 332.794,131.44 327.974,132.7 M273.954,135.61 C270.544,135.92 268.324,139.06 268.394,142.36 C267.804,146.51 271.744,149.92 275.584,150.31 C279.084,149.93 282.784,147.09 282.734,143.31 C283.364,138.69 278.374,134.52 273.954,135.61 M218.014,136.75 C212.744,139.36 211.954,147.57 217.114,150.77 C222.814,155.99 232.434,147.53 228.824,141.08 C227.194,136.87 222.064,135.11 218.014,136.75 M384.934,136.65 C381.134,137.74 378.714,142.14 379.974,145.92 C380.874,148.4 382.694,150.61 385.044,151.86 C391.244,154.65 399.044,147.21 395.984,140.94 C394.774,136.14 388.994,135.29 384.934,136.65 M179.974,137.67 C177.104,138.65 175.104,141.49 174.594,144.41 C174.454,147.22 176.114,149.92 178.334,151.56 C182.034,153.67 187.884,151.72 188.484,147.15 C190.234,142.2 185.264,135.8 179.974,137.67 M150.974,145.7 C148.834,146.71 148.124,149.36 147.764,151.52 C147.064,156.18 152.314,160.65 156.754,158.57 C162.104,157.13 163.134,149.29 158.864,146.08 C156.484,144.78 153.504,144.93 150.974,145.7 M247.064,147.79 C244.574,149.24 242.164,151.49 241.574,154.42 C240.954,158.44 244.294,161.98 247.994,162.96 C252.664,164.49 258.354,160.37 257.794,155.33 C258.344,149.91 251.874,145.72 247.064,147.79 M279.904,153.81 C277.144,154.57 274.034,156.23 273.424,159.3 C272.574,162.58 273.314,166.69 276.394,168.58 C281.034,171.97 289.124,168.4 288.684,162.31 C289.564,157.3 284.284,153.83 279.904,153.81 M344.904,156.8 C341.354,157.68 337.754,160.45 337.634,164.4 C337.214,169.33 342.744,173.28 347.344,172.16 C350.884,170.99 353.474,167.17 352.684,163.41 C352.454,159.58 348.564,156.61 344.904,156.8 M370.024,162.8 C364.794,165.21 363.734,172.49 366.954,176.92 C368.744,178.59 371.174,179.61 373.614,179.86 C378.264,179.4 382.064,175.03 382.334,170.45 C381.474,167.46 379.684,164.61 377.164,162.74 C374.874,162.01 372.294,161.99 370.024,162.8 M315.974,163.7 C311.704,164.93 308.654,169.97 310.574,174.24 C312.224,181.48 325.034,180.68 325.474,173.12 C327.024,167.56 321.444,162.19 315.974,163.7 M182.054,164.75 C177.944,166.12 175.304,170.78 176.924,174.96 C179.214,180.7 189.114,180.84 190.824,174.51 C193.254,169.27 187.194,163.31 182.054,164.75 M231.034,164.75 C225.424,166.6 224.804,175.33 229.564,178.41 C233.544,181.56 240.104,178.5 241.044,173.75 C242.774,168.31 236.214,162.54 231.034,164.75 M156.004,172.74 C151.654,174.96 150.474,181.49 153.834,185.08 C156.794,187.66 161.594,187.81 164.754,185.5 C167.154,182.97 167.204,178.89 166.154,175.75 C164.524,171.89 159.474,171.53 156.004,172.74 M202.724,174.86 C199.794,175.1 197.344,177.36 196.224,179.99 C194.074,185.17 199.604,191.97 205.184,189.97 C210.024,189.07 212.754,182.97 210.234,178.77 C208.864,176.04 205.674,174.69 202.724,174.86 M128.054,181.75 C124.934,183.12 122.164,185.95 121.644,189.41 C121.704,192.65 123.854,195.79 126.704,197.29 C130.884,199.36 136.284,196.92 137.954,192.68 C140.604,186.94 133.944,179.69 128.054,181.75 M347.004,183.76 C342.604,185.83 342.394,192.32 345.104,195.83 C349.334,201.45 360.564,197.67 359.694,190.35 C359.524,184.2 352.064,181.53 347.004,183.76 M382.954,183.7 C378.784,184.14 376.044,188.29 376.444,192.31 C376.364,196.71 380.224,200.53 384.614,200.45 C389.024,200.97 392.044,196.76 393.374,193.11 C393.764,187.67 388.574,182.28 382.954,183.7 M304.924,185.74 C303.174,186 301.414,186.62 300.054,187.78 C296.314,192.72 298.544,202.2 305.594,202.44 C312.184,203.82 316.184,195.47 313.794,190.13 C312.824,186.33 308.314,185.37 304.924,185.74 M273.924,186.71 C271.064,187.29 268.404,189.18 267.054,191.79 C265.474,195.77 267.164,200.89 271.004,202.91 C273.074,203.68 275.374,203.63 277.544,203.33 C280.984,202.95 282.974,199.35 283.304,196.22 C283.254,191.38 279.354,185.61 273.924,186.71 M171.974,191.72 C167.894,194.17 167.094,200.9 170.874,204.01 C175.594,207.99 184.854,204.11 183.654,197.41 C183.454,191.66 176.484,190.01 171.974,191.72 M226.924,194.65 C223.194,196.52 220.844,201.84 223.184,205.66 C225.654,211.65 235.354,211.49 238.174,205.91 C239.204,202.73 239.054,198.74 236.774,196.13 C234.144,193.8 230.154,193.75 226.924,194.65 M370.974,197.73 C368.074,198.6 365.414,201.11 365.394,204.32 C365.144,207.23 365.294,211.23 368.674,212.25 C373.614,215.17 381.484,211.55 380.684,205.35 C380.964,200.27 375.744,196.47 370.974,197.73 M128.034,205.78 C123.174,207.84 121.924,214.7 125.384,218.53 C128.014,220.88 132.014,220.89 135.244,220 C138.134,219.25 138.844,215.91 138.844,213.33 C138.814,211.14 138.784,208.47 136.844,207.03 C134.404,205.16 130.894,204.61 128.034,205.78 M255.994,205.73 C252.184,207.42 251.864,212.43 253.004,215.92 C255.744,221.33 264.354,221.26 267.234,215.98 C269.934,212.52 267.684,207.58 264.174,205.72 C261.574,204.78 258.584,204.78 255.994,205.73 M286.924,208.71 C282.374,209.17 278.584,214.33 281.374,218.55 C284.084,223.72 292.104,223.77 294.794,218.55 C298.104,213.46 292.164,207.6 286.924,208.71 M192.004,212.71 C187.334,216.05 187.314,223.6 192.014,226.94 C197.374,229.35 203.984,224.21 202.614,218.41 C202.494,213.14 196.304,211.1 192.004,212.71 M353.024,214.75 C346.774,217.52 346.534,228.27 353.234,230.65 C359.124,233.51 366.434,227.74 365.564,221.41 C364.404,216.15 358.144,212.37 353.024,214.75 M213.994,216.72 C210.794,218.48 208.794,222.49 209.734,226.1 C210.944,229.68 214.764,232.18 218.574,231.53 C223.974,231.64 228.134,224.46 225.014,219.94 C223.074,215.96 217.754,215.4 213.994,216.72 M162.004,220.76 C158.784,222.48 156.804,226.52 157.704,230.11 C158.764,232.86 161.294,234.89 163.984,235.96 C167.014,236.94 169.934,234.76 171.904,232.67 C175.334,229.14 173.254,222.83 169.164,220.78 C166.874,220.02 164.294,220 162.004,220.76 M100.044,222.76 C95.284,224.88 94.084,231.25 96.364,235.58 C97.994,237.76 100.684,239.5 103.504,239.31 C106.834,238.57 110.424,236.26 110.904,232.62 C111.324,229.69 110.684,226.43 108.744,224.16 C106.264,222.52 102.894,221.75 100.044,222.76 M260.974,224.66 C257.444,225.93 254.434,229.39 254.584,233.27 C255.234,238.47 260.864,243.24 266.144,240.88 C271.364,239.27 273.204,232.64 270.814,228.08 C268.574,225.24 264.494,223.64 260.974,224.66 M131.944,227.67 C124.414,230.16 128.134,242.47 135.494,241.32 C141.604,241.26 143.604,232.88 140.154,228.76 C137.924,226.89 134.614,226.86 131.944,227.67 M278.004,227.74 C274.834,230.07 273.394,234.81 275.704,238.24 C278.274,243.47 287.024,243.51 289.164,237.86 C292.004,234.22 289.424,228.81 285.394,227.46 C282.974,226.91 280.354,226.92 278.004,227.74 M315.024,228.76 C313.094,229.76 311.434,231.47 310.714,233.55 C310.094,236.62 311.894,239.79 314.344,241.56 C318.654,244.16 325.634,240.82 324.784,235.33 C325.604,230.05 319.504,226.58 315.024,228.76 M230.994,236.71 C227.074,238.59 225.984,244 228.374,247.51 C230.494,251.21 235.984,251.29 239.074,248.81 C242.894,246.08 242.274,239.86 238.864,237.07 C236.514,235.75 233.494,235.86 230.994,236.71 M130.954,249.63 C127.594,250.47 124.624,253.71 124.634,257.26 C125.344,261.99 131.254,266.45 135.794,263.53 C138.044,261.85 140.314,259.39 140.374,256.45 C139.474,252.39 135.284,248.63 130.954,249.63 M189.934,252.67 C187.304,253.69 185.504,256.52 185.534,259.34 C185.734,263.32 189.284,267.36 193.564,266.5 C200.234,266.8 202.934,256.87 197.834,253.1 C195.454,251.79 192.474,251.95 189.934,252.67 M230.004,252.75 C225.384,254.84 225.284,261.98 228.704,265.2 C232.224,269.21 240.614,267.89 241.454,262.17 C241.964,259.22 242.144,255.39 239.604,253.32 C236.704,251.77 233.074,251.79 230.004,252.75 M155.054,253.77 C152.544,255.17 150.494,257.61 149.784,260.43 C149.934,262.88 151.114,265.31 152.934,266.96 C156.784,269.87 163.164,268.26 164.934,263.69 C167.614,258.08 160.574,251.37 155.054,253.77 M95.984,261.71 C92.564,263.62 91.334,268.9 93.984,271.95 C95.404,273.61 97.374,274.95 99.584,275.23 C102.964,274.81 106.324,271.97 106.174,268.35 C106.104,266.1 105.624,263.57 103.874,262.02 C101.464,260.82 98.504,260.89 95.984,261.71 z" fill-opacity="0" stroke="#FFCF3E" stroke-width="0.5"/>
      </g>
      <g>
        <path d="M356.004,67.74 C358.764,66.74 362.034,66.89 364.634,68.3 C366.874,69.9 368.174,72.65 368.494,75.35 C367.914,80.35 362.824,84.73 357.664,83.34 C349.994,82.61 349.034,70.21 356.004,67.74 z" fill="#F7B631"/>
        <path d="M356.004,67.74 C358.764,66.74 362.034,66.89 364.634,68.3 C366.874,69.9 368.174,72.65 368.494,75.35 C367.914,80.35 362.824,84.73 357.664,83.34 C349.994,82.61 349.034,70.21 356.004,67.74 z" fill-opacity="0" stroke="#F7B631" stroke-width="0.5"/>
      </g>
      <g>
        <path d="M390.874,71.76 C395.014,71.28 399.424,74.93 398.684,79.32 C398.924,83.2 394.864,85.35 391.584,85.96 C387.424,85.57 383.694,81.74 384.564,77.4 C384.544,73.98 387.824,72.04 390.874,71.76 z" fill="#F7B631"/>
        <path d="M390.874,71.76 C395.014,71.28 399.424,74.93 398.684,79.32 C398.924,83.2 394.864,85.35 391.584,85.96 C387.424,85.57 383.694,81.74 384.564,77.4 C384.544,73.98 387.824,72.04 390.874,71.76 z" fill-opacity="0" stroke="#F7B631" stroke-width="0.5"/>
      </g>
      <g>
        <path d="M151.364,72.33 C155.674,75.72 159.314,80 164.154,82.7 C167.824,84.77 171.534,86.78 175.014,89.18 C173.864,90.09 172.714,91.01 171.554,91.92 C165.154,89.31 159.914,84.64 155.304,79.61 C153.414,77.54 152.354,74.9 151.364,72.33 z" fill="#7F9800"/>
        <path d="M151.364,72.33 C155.674,75.72 159.314,80 164.154,82.7 C167.824,84.77 171.534,86.78 175.014,89.18 C173.864,90.09 172.714,91.01 171.554,91.92 C165.154,89.31 159.914,84.64 155.304,79.61 C153.414,77.54 152.354,74.9 151.364,72.33 z" fill-opacity="0" stroke="#7F9800" stroke-width="0.5"/>
      </g>
      <g>
        <path d="M103.334,91.03 C102.064,84.45 104.524,77.59 109.294,72.98 C107.824,77.95 104.844,83.35 107.214,88.54 C110.344,96.96 118.674,102.3 127.264,103.8 C131.264,104.85 135.294,105.76 139.404,106.28 C143.534,107 147.644,107.89 151.774,108.65 C150.834,109.47 149.934,110.34 149.074,111.25 C142.104,109.08 134.684,109.86 127.644,108.12 C124.694,107.43 121.784,106.6 118.904,105.7 C112.074,103.06 106.124,97.89 103.334,91.03 z" fill="#809900"/>
        <path d="M103.334,91.03 C102.064,84.45 104.524,77.59 109.294,72.98 C107.824,77.95 104.844,83.35 107.214,88.54 C110.344,96.96 118.674,102.3 127.264,103.8 C131.264,104.85 135.294,105.76 139.404,106.28 C143.534,107 147.644,107.89 151.774,108.65 C150.834,109.47 149.934,110.34 149.074,111.25 C142.104,109.08 134.684,109.86 127.644,108.12 C124.694,107.43 121.784,106.6 118.904,105.7 C112.074,103.06 106.124,97.89 103.334,91.03 z" fill-opacity="0" stroke="#809900" stroke-width="0.5"/>
      </g>
      <g>
        <path d="M325.044,75.72 C329.804,74.12 336.034,79.04 334.634,84.26 C334.194,88.51 329.354,90.24 325.634,89.42 C318.574,88.97 318.844,77.52 325.044,75.72 z" fill="#F7B631"/>
        <path d="M325.044,75.72 C329.804,74.12 336.034,79.04 334.634,84.26 C334.194,88.51 329.354,90.24 325.634,89.42 C318.574,88.97 318.844,77.52 325.044,75.72 z" fill-opacity="0" stroke="#F7B631" stroke-width="0.5"/>
      </g>
      <g>
        <path d="M263.994,80.72 C266.964,79.67 270.584,79.88 273.244,81.66 C276.704,85.2 276.214,91.98 271.964,94.69 C268.264,96.18 263.014,95.92 260.934,91.99 C258.244,88.26 260.094,82.75 263.994,80.72 z" fill="#F7B631"/>
        <path d="M263.994,80.72 C266.964,79.67 270.584,79.88 273.244,81.66 C276.704,85.2 276.214,91.98 271.964,94.69 C268.264,96.18 263.014,95.92 260.934,91.99 C258.244,88.26 260.094,82.75 263.994,80.72 z" fill-opacity="0" stroke="#F7B631" stroke-width="0.5"/>
      </g>
      <g>
        <path d="M294.024,84.77 C299.064,82.41 305.174,86.87 304.804,92.32 C305.934,98.47 297.434,102.94 292.784,99.09 C290.524,97.3 287.934,94.7 288.724,91.54 C289.464,88.7 291.474,86.19 294.024,84.77 z" fill="#F7B631"/>
        <path d="M294.024,84.77 C299.064,82.41 305.174,86.87 304.804,92.32 C305.934,98.47 297.434,102.94 292.784,99.09 C290.524,97.3 287.934,94.7 288.724,91.54 C289.464,88.7 291.474,86.19 294.024,84.77 z" fill-opacity="0" stroke="#F7B631" stroke-width="0.5"/>
      </g>
      <g>
        <path d="M234.974,89.76 C238.904,89.18 243.384,92.26 243.654,96.4 C244.714,101.07 240.374,105.97 235.614,105.43 C230.554,105.42 225.934,99.22 228.784,94.58 C229.924,92.09 232.354,90.39 234.974,89.76 z" fill="#F7B631"/>
        <path d="M234.974,89.76 C238.904,89.18 243.384,92.26 243.654,96.4 C244.714,101.07 240.374,105.97 235.614,105.43 C230.554,105.42 225.934,99.22 228.784,94.58 C229.924,92.09 232.354,90.39 234.974,89.76 z" fill-opacity="0" stroke="#F7B631" stroke-width="0.5"/>
      </g>
      <g>
        <path d="M76.264,106.98 C82.764,98.32 92.854,93.09 103.334,91.03 C106.124,97.89 112.074,103.06 118.904,105.7 C108.464,110.78 98.064,117.47 92.254,127.86 C91.834,124.04 90.394,120.1 86.984,117.98 C84.274,115.71 80.604,116.15 77.344,116.36 C79.564,122.7 84.694,128.41 91.804,128.78 C90.894,130.72 89.804,132.7 87.804,133.73 C83.224,131.32 78.384,128.43 76.414,123.36 C73.734,118.24 74.824,112.28 76.264,106.98 z" fill="#ACCC00"/>
        <path d="M76.264,106.98 C82.764,98.32 92.854,93.09 103.334,91.03 C106.124,97.89 112.074,103.06 118.904,105.7 C108.464,110.78 98.064,117.47 92.254,127.86 C91.834,124.04 90.394,120.1 86.984,117.98 C84.274,115.71 80.604,116.15 77.344,116.36 C79.564,122.7 84.694,128.41 91.804,128.78 C90.894,130.72 89.804,132.7 87.804,133.73 C83.224,131.32 78.384,128.43 76.414,123.36 C73.734,118.24 74.824,112.28 76.264,106.98 z" fill-opacity="0" stroke="#ACCC00" stroke-width="0.5"/>
      </g>
      <g>
        <path d="M419.944,124.31 C421.724,113.14 419.454,101.79 421.394,90.64 C424.134,93.58 424.384,97.76 425.634,101.4 C427.354,106.73 427.494,112.39 428.834,117.8 C430.354,124.2 429.544,130.83 429.824,137.34 C429.744,146.64 430.024,155.97 428.984,165.23 C427.454,172.38 427.754,179.77 426.094,186.91 C424.504,193.04 424.124,199.45 422.004,205.46 C420.324,212.54 416.674,218.87 413.944,225.56 C412.004,230.6 408.524,234.76 405.334,239.04 C401.704,244.01 397.544,248.62 392.714,252.46 C387.144,257.5 380.224,260.58 374.074,264.8 C369.464,267.47 364.374,269.19 359.484,271.26 C351.864,273.93 344.534,277.34 336.714,279.39 C325.764,282.2 314.954,285.54 303.874,287.79 C298.914,289.17 294.114,291.14 289.004,291.9 C278.744,294.42 268.464,296.87 258.134,299.06 C248.354,302.7 238.054,304.5 227.934,306.93 C216.764,310.34 205.084,311.81 194.054,315.72 C185.594,317.4 177.254,319.66 168.704,320.92 C161.714,322.87 154.404,323.18 147.364,324.91 C140.404,326.32 133.194,326.01 126.314,327.83 C120.504,329.25 114.484,328.39 108.574,328.61 C100.094,328.42 91.444,329.44 83.184,326.99 C76.184,326.16 69.394,324.37 62.714,322.17 C67.154,318.33 71.434,314.03 73.344,308.33 C77.394,306.55 83.814,305.65 84.354,300.25 C85.124,297.12 84.924,292.39 89.004,291.67 C93.474,290.21 96.784,294.3 99.814,296.85 C104.314,295.99 108.844,295.33 113.404,294.87 C113.104,291.27 112.224,287.54 113.204,283.98 C115.604,279.98 121.994,279.11 125.084,282.83 C128.294,285.53 126.904,289.93 126.314,293.45 C135.954,292.17 145.774,291.57 155.144,288.79 C160.764,287.5 160.834,279.15 166.714,278.39 C171.264,277.63 173.754,282.45 177.594,283.73 C180.594,283.8 183.484,282.85 186.364,282.17 C196.104,279.43 206.144,277.85 215.724,274.52 C226.934,271.55 238.324,269.19 249.524,266.14 C253.574,264.92 255.254,260.36 258.984,258.66 C263.114,258.38 266.844,261.4 271.034,260.69 C275.794,259.9 280.394,258.39 285.054,257.15 C285.404,254.46 285.524,251.69 286.474,249.14 C287.774,246.18 291.844,244.28 294.734,246.13 C297.134,247.98 298.554,250.76 300.204,253.26 C303.244,252.85 306.274,252.29 309.254,251.57 C309.144,254.27 309.394,257.32 311.664,259.17 C315.374,263.15 322.874,261.51 324.794,256.5 C326.094,253.41 324.684,250.14 323.944,247.12 C326.884,246.32 329.884,245.63 332.644,244.31 C335.874,242.58 336.844,238.41 339.974,236.62 C343.584,236.12 347.144,237.54 350.764,237.27 C353.584,236.9 356.174,235.62 358.744,234.48 C371.864,228.56 384.134,220.25 393.434,209.18 C395.624,206.5 398.814,204.06 399.314,200.45 C397.894,196.77 394.094,193.19 396.224,189 C398.004,183.55 404.654,184.33 409.204,183.71 C409.694,181.17 411.104,178.47 410.224,175.91 C408.084,173.61 404.914,172.36 403.194,169.68 C401.834,166.27 402.354,161.56 405.614,159.41 C408.704,158.09 412.164,158.26 415.464,157.96 C417.654,147.89 419.224,137.67 420.144,127.41 C417.554,130.38 415.044,134.61 410.534,134.4 C404.274,135.01 399.684,126.98 402.994,121.79 C404.914,118.89 408.694,117.03 412.164,117.73 C415.354,119.07 417.514,121.95 419.944,124.31 M252.274,267.12 C253.594,268.92 254.714,270.99 256.544,272.36 C260.504,274.72 266.074,272.88 268.204,268.89 C268.884,266.86 268.364,264.67 268.324,262.6 C262.664,261.92 256.524,263.12 252.274,267.12 z" fill="#F2B729"/>
        <path d="M419.944,124.31 C421.724,113.14 419.454,101.79 421.394,90.64 C424.134,93.58 424.384,97.76 425.634,101.4 C427.354,106.73 427.494,112.39 428.834,117.8 C430.354,124.2 429.544,130.83 429.824,137.34 C429.744,146.64 430.024,155.97 428.984,165.23 C427.454,172.38 427.754,179.77 426.094,186.91 C424.504,193.04 424.124,199.45 422.004,205.46 C420.324,212.54 416.674,218.87 413.944,225.56 C412.004,230.6 408.524,234.76 405.334,239.04 C401.704,244.01 397.544,248.62 392.714,252.46 C387.144,257.5 380.224,260.58 374.074,264.8 C369.464,267.47 364.374,269.19 359.484,271.26 C351.864,273.93 344.534,277.34 336.714,279.39 C325.764,282.2 314.954,285.54 303.874,287.79 C298.914,289.17 294.114,291.14 289.004,291.9 C278.744,294.42 268.464,296.87 258.134,299.06 C248.354,302.7 238.054,304.5 227.934,306.93 C216.764,310.34 205.084,311.81 194.054,315.72 C185.594,317.4 177.254,319.66 168.704,320.92 C161.714,322.87 154.404,323.18 147.364,324.91 C140.404,326.32 133.194,326.01 126.314,327.83 C120.504,329.25 114.484,328.39 108.574,328.61 C100.094,328.42 91.444,329.44 83.184,326.99 C76.184,326.16 69.394,324.37 62.714,322.17 C67.154,318.33 71.434,314.03 73.344,308.33 C77.394,306.55 83.814,305.65 84.354,300.25 C85.124,297.12 84.924,292.39 89.004,291.67 C93.474,290.21 96.784,294.3 99.814,296.85 C104.314,295.99 108.844,295.33 113.404,294.87 C113.104,291.27 112.224,287.54 113.204,283.98 C115.604,279.98 121.994,279.11 125.084,282.83 C128.294,285.53 126.904,289.93 126.314,293.45 C135.954,292.17 145.774,291.57 155.144,288.79 C160.764,287.5 160.834,279.15 166.714,278.39 C171.264,277.63 173.754,282.45 177.594,283.73 C180.594,283.8 183.484,282.85 186.364,282.17 C196.104,279.43 206.144,277.85 215.724,274.52 C226.934,271.55 238.324,269.19 249.524,266.14 C253.574,264.92 255.254,260.36 258.984,258.66 C263.114,258.38 266.844,261.4 271.034,260.69 C275.794,259.9 280.394,258.39 285.054,257.15 C285.404,254.46 285.524,251.69 286.474,249.14 C287.774,246.18 291.844,244.28 294.734,246.13 C297.134,247.98 298.554,250.76 300.204,253.26 C303.244,252.85 306.274,252.29 309.254,251.57 C309.144,254.27 309.394,257.32 311.664,259.17 C315.374,263.15 322.874,261.51 324.794,256.5 C326.094,253.41 324.684,250.14 323.944,247.12 C326.884,246.32 329.884,245.63 332.644,244.31 C335.874,242.58 336.844,238.41 339.974,236.62 C343.584,236.12 347.144,237.54 350.764,237.27 C353.584,236.9 356.174,235.62 358.744,234.48 C371.864,228.56 384.134,220.25 393.434,209.18 C395.624,206.5 398.814,204.06 399.314,200.45 C397.894,196.77 394.094,193.19 396.224,189 C398.004,183.55 404.654,184.33 409.204,183.71 C409.694,181.17 411.104,178.47 410.224,175.91 C408.084,173.61 404.914,172.36 403.194,169.68 C401.834,166.27 402.354,161.56 405.614,159.41 C408.704,158.09 412.164,158.26 415.464,157.96 C417.654,147.89 419.224,137.67 420.144,127.41 C417.554,130.38 415.044,134.61 410.534,134.4 C404.274,135.01 399.684,126.98 402.994,121.79 C404.914,118.89 408.694,117.03 412.164,117.73 C415.354,119.07 417.514,121.95 419.944,124.31 M252.274,267.12 C253.594,268.92 254.714,270.99 256.544,272.36 C260.504,274.72 266.074,272.88 268.204,268.89 C268.884,266.86 268.364,264.67 268.324,262.6 C262.664,261.92 256.524,263.12 252.274,267.12 z" fill-opacity="0" stroke="#F2B729" stroke-width="0.5"/>
      </g>
      <g>
        <path d="M126.364,97.31 C130.594,97.05 135.144,96.72 138.944,98.97 C141.354,100.13 142.504,102.63 143.844,104.78 C142.364,105.28 140.894,105.81 139.404,106.28 C135.294,105.76 131.264,104.85 127.264,103.8 C126.944,101.63 126.644,99.47 126.364,97.31 z" fill="#E6F160"/>
        <path d="M126.364,97.31 C130.594,97.05 135.144,96.72 138.944,98.97 C141.354,100.13 142.504,102.63 143.844,104.78 C142.364,105.28 140.894,105.81 139.404,106.28 C135.294,105.76 131.264,104.85 127.264,103.8 C126.944,101.63 126.644,99.47 126.364,97.31 z" fill-opacity="0" stroke="#E6F160" stroke-width="0.5"/>
      </g>
      <g>
        <path d="M384.974,98.68 C389.824,97.25 394.104,102.76 393.674,107.25 C392.884,114.42 379.674,114.98 379.524,107.25 C378.574,103.39 381.344,99.73 384.974,98.68 z" fill="#F7B631"/>
        <path d="M384.974,98.68 C389.824,97.25 394.104,102.76 393.674,107.25 C392.884,114.42 379.674,114.98 379.524,107.25 C378.574,103.39 381.344,99.73 384.974,98.68 z" fill-opacity="0" stroke="#F7B631" stroke-width="0.5"/>
      </g>
      <g>
        <path d="M316.034,103.74 C320.404,101.86 325.394,105.09 326.114,109.65 C326.644,115.72 318.694,120 314.004,115.91 C311.414,112.33 311.474,105.76 316.034,103.74 z" fill="#F7B631"/>
        <path d="M316.034,103.74 C320.404,101.86 325.394,105.09 326.114,109.65 C326.644,115.72 318.694,120 314.004,115.91 C311.414,112.33 311.474,105.76 316.034,103.74 z" fill-opacity="0" stroke="#F7B631" stroke-width="0.5"/>
      </g>
      <g>
        <path d="M92.254,127.86 C98.064,117.47 108.464,110.78 118.904,105.7 C121.784,106.6 124.694,107.43 127.644,108.12 C134.684,109.86 142.104,109.08 149.074,111.25 C144.114,116.81 139.044,122.27 134.114,127.85 C127.654,134.12 122.974,141.86 117.274,148.77 C117.254,147.77 117.234,146.78 117.224,145.81 C111.194,145.53 105.184,144.72 99.384,142.99 C105.224,142.04 110.764,138.44 113.124,132.89 C114.554,129.79 113.214,126.44 112.514,123.35 C108.884,123.14 104.844,122.25 101.564,124.36 C96.594,127.15 93.584,132.19 91.094,137.14 C90.284,136.89 89.464,136.66 88.654,136.43 C88.454,141.16 88.174,146.16 90.314,150.53 C93.414,157.3 100.474,161.43 107.554,162.89 C103.884,168.25 100.914,174.04 97.894,179.79 C93.914,177.32 89.004,178.65 84.594,178.42 C74.554,178.89 64.504,177.49 54.894,174.58 C60.644,174.74 66.534,172.48 70.194,167.95 C72.324,164.99 72.824,160.91 71.634,157.49 C71.104,155.28 68.434,155.14 66.584,155.06 C61.894,155.19 57.234,157.37 54.104,160.87 C51.514,163.72 51.524,167.78 51.094,171.39 C50.074,170.57 49.024,169.79 47.964,169.04 C47.544,170.17 47.144,171.32 46.764,172.48 C47.294,164.05 51.844,156.34 57.974,150.71 C65.074,144.08 73.744,139.22 82.654,135.46 C84.354,134.84 86.094,134.32 87.804,133.73 C89.804,132.7 90.894,130.72 91.804,128.78 L92.254,127.86 z" fill="#E63E00"/>
        <path d="M92.254,127.86 C98.064,117.47 108.464,110.78 118.904,105.7 C121.784,106.6 124.694,107.43 127.644,108.12 C134.684,109.86 142.104,109.08 149.074,111.25 C144.114,116.81 139.044,122.27 134.114,127.85 C127.654,134.12 122.974,141.86 117.274,148.77 C117.254,147.77 117.234,146.78 117.224,145.81 C111.194,145.53 105.184,144.72 99.384,142.99 C105.224,142.04 110.764,138.44 113.124,132.89 C114.554,129.79 113.214,126.44 112.514,123.35 C108.884,123.14 104.844,122.25 101.564,124.36 C96.594,127.15 93.584,132.19 91.094,137.14 C90.284,136.89 89.464,136.66 88.654,136.43 C88.454,141.16 88.174,146.16 90.314,150.53 C93.414,157.3 100.474,161.43 107.554,162.89 C103.884,168.25 100.914,174.04 97.894,179.79 C93.914,177.32 89.004,178.65 84.594,178.42 C74.554,178.89 64.504,177.49 54.894,174.58 C60.644,174.74 66.534,172.48 70.194,167.95 C72.324,164.99 72.824,160.91 71.634,157.49 C71.104,155.28 68.434,155.14 66.584,155.06 C61.894,155.19 57.234,157.37 54.104,160.87 C51.514,163.72 51.524,167.78 51.094,171.39 C50.074,170.57 49.024,169.79 47.964,169.04 C47.544,170.17 47.144,171.32 46.764,172.48 C47.294,164.05 51.844,156.34 57.974,150.71 C65.074,144.08 73.744,139.22 82.654,135.46 C84.354,134.84 86.094,134.32 87.804,133.73 C89.804,132.7 90.894,130.72 91.804,128.78 L92.254,127.86 z" fill-opacity="0" stroke="#E63E00" stroke-width="0.5"/>
      </g>
      <g>
        <path d="M347.974,106.7 C352.854,104.92 357.944,109.02 359.364,113.55 C359.754,119.22 353.634,124.75 347.974,122.96 C344.494,121.61 340.994,118.43 341.524,114.35 C341.504,110.64 344.834,107.99 347.974,106.7 z" fill="#F7B631"/>
        <path d="M347.974,106.7 C352.854,104.92 357.944,109.02 359.364,113.55 C359.754,119.22 353.634,124.75 347.974,122.96 C344.494,121.61 340.994,118.43 341.524,114.35 C341.504,110.64 344.834,107.99 347.974,106.7 z" fill-opacity="0" stroke="#F7B631" stroke-width="0.5"/>
      </g>
      <g>
        <path d="M71.604,120.34 C70.974,115.39 73.254,110.73 76.264,106.98 C74.824,112.28 73.734,118.24 76.414,123.36 C78.384,128.43 83.224,131.32 87.804,133.73 C86.094,134.32 84.354,134.84 82.654,135.46 C76.724,132.67 71.944,127.08 71.604,120.34 z" fill="#7F9901"/>
        <path d="M71.604,120.34 C70.974,115.39 73.254,110.73 76.264,106.98 C74.824,112.28 73.734,118.24 76.414,123.36 C78.384,128.43 83.224,131.32 87.804,133.73 C86.094,134.32 84.354,134.84 82.654,135.46 C76.724,132.67 71.944,127.08 71.604,120.34 z" fill-opacity="0" stroke="#7F9901" stroke-width="0.5"/>
      </g>
      <g>
        <path d="M280.954,108.67 C284.394,108.05 288.504,109.52 290.154,112.74 C291.194,116.16 291.354,120.61 288.454,123.21 C284.734,127.21 277.414,125.58 275.024,120.91 C274.284,118.82 274.314,116.54 274.594,114.38 C274.914,111.19 278.104,109.28 280.954,108.67 z" fill="#F7B631"/>
        <path d="M280.954,108.67 C284.394,108.05 288.504,109.52 290.154,112.74 C291.194,116.16 291.354,120.61 288.454,123.21 C284.734,127.21 277.414,125.58 275.024,120.91 C274.284,118.82 274.314,116.54 274.594,114.38 C274.914,111.19 278.104,109.28 280.954,108.67 z" fill-opacity="0" stroke="#F7B631" stroke-width="0.5"/>
      </g>
      <g>
        <path d="M246.934,111.64 C250.494,110.39 255.174,111.34 256.824,115.06 C260.034,120.5 254.644,127.49 248.804,127.16 C245.774,125.71 243.154,123.14 241.754,120.08 C241.174,116.56 243.704,112.91 246.934,111.64 z" fill="#F7B631"/>
        <path d="M246.934,111.64 C250.494,110.39 255.174,111.34 256.824,115.06 C260.034,120.5 254.644,127.49 248.804,127.16 C245.774,125.71 243.154,123.14 241.754,120.08 C241.174,116.56 243.704,112.91 246.934,111.64 z" fill-opacity="0" stroke="#F7B631" stroke-width="0.5"/>
      </g>
      <g>
        <path d="M198.974,113.63 C204.454,112.16 209.834,118.75 207.174,123.91 C205.514,129.19 197.394,130.1 194.694,125.24 C191.664,121.04 194.044,114.93 198.974,113.63 z" fill="#F7B631"/>
        <path d="M198.974,113.63 C204.454,112.16 209.834,118.75 207.174,123.91 C205.514,129.19 197.394,130.1 194.694,125.24 C191.664,121.04 194.044,114.93 198.974,113.63 z" fill-opacity="0" stroke="#F7B631" stroke-width="0.5"/>
      </g>
      <g>
        <path d="M77.344,116.36 C80.604,116.15 84.274,115.71 86.984,117.98 C90.394,120.1 91.834,124.04 92.254,127.86 L91.804,128.78 C84.694,128.41 79.564,122.7 77.344,116.36 z" fill="#E6F160"/>
        <path d="M77.344,116.36 C80.604,116.15 84.274,115.71 86.984,117.98 C90.394,120.1 91.834,124.04 92.254,127.86 L91.804,128.78 C84.694,128.41 79.564,122.7 77.344,116.36 z" fill-opacity="0" stroke="#E6F160" stroke-width="0.5"/>
      </g>
      <g>
        <path d="M101.564,124.36 C104.844,122.25 108.884,123.14 112.514,123.35 C113.214,126.44 114.554,129.79 113.124,132.89 C110.764,138.44 105.224,142.04 99.384,142.99 C95.764,142.52 93.054,140.06 91.094,137.14 C93.584,132.19 96.594,127.15 101.564,124.36 z" fill="#FFA158"/>
        <path d="M101.564,124.36 C104.844,122.25 108.884,123.14 112.514,123.35 C113.214,126.44 114.554,129.79 113.124,132.89 C110.764,138.44 105.224,142.04 99.384,142.99 C95.764,142.52 93.054,140.06 91.094,137.14 C93.584,132.19 96.594,127.15 101.564,124.36 z" fill-opacity="0" stroke="#FFA158" stroke-width="0.5"/>
      </g>
      <g>
        <path d="M304.734,132.86 C308.604,132.39 312.474,135.3 312.494,139.33 C312.404,145.22 304.444,148.63 300.014,144.89 C298.064,142.63 298.174,139.27 298.694,136.52 C299.174,133.75 302.364,133 304.734,132.86 z" fill="#F7B631"/>
        <path d="M304.734,132.86 C308.604,132.39 312.474,135.3 312.494,139.33 C312.404,145.22 304.444,148.63 300.014,144.89 C298.064,142.63 298.174,139.27 298.694,136.52 C299.174,133.75 302.364,133 304.734,132.86 z" fill-opacity="0" stroke="#F7B631" stroke-width="0.5"/>
      </g>
      <g>
        <path d="M327.974,132.7 C332.794,131.44 339.164,135.67 337.444,141.11 C335.734,146.58 327.994,147.78 324.284,143.62 C322.454,139.82 323.034,133.66 327.974,132.7 z" fill="#F7B631"/>
        <path d="M327.974,132.7 C332.794,131.44 339.164,135.67 337.444,141.11 C335.734,146.58 327.994,147.78 324.284,143.62 C322.454,139.82 323.034,133.66 327.974,132.7 z" fill-opacity="0" stroke="#F7B631" stroke-width="0.5"/>
      </g>
      <g>
        <path d="M273.954,135.61 C278.374,134.52 283.364,138.69 282.734,143.31 C282.784,147.09 279.084,149.93 275.584,150.31 C271.744,149.92 267.804,146.51 268.394,142.36 C268.324,139.06 270.544,135.92 273.954,135.61 z" fill="#F7B631"/>
        <path d="M273.954,135.61 C278.374,134.52 283.364,138.69 282.734,143.31 C282.784,147.09 279.084,149.93 275.584,150.31 C271.744,149.92 267.804,146.51 268.394,142.36 C268.324,139.06 270.544,135.92 273.954,135.61 z" fill-opacity="0" stroke="#F7B631" stroke-width="0.5"/>
      </g>
      <g>
        <path d="M88.654,136.43 C89.464,136.66 90.284,136.89 91.094,137.14 C93.054,140.06 95.764,142.52 99.384,142.99 C105.184,144.72 111.194,145.53 117.224,145.81 C117.234,146.78 117.254,147.77 117.274,148.77 C113.974,153.43 110.804,158.18 107.554,162.89 C100.474,161.43 93.414,157.3 90.314,150.53 C88.174,146.16 88.454,141.16 88.654,136.43 z" fill="#AE0604"/>
        <path d="M88.654,136.43 C89.464,136.66 90.284,136.89 91.094,137.14 C93.054,140.06 95.764,142.52 99.384,142.99 C105.184,144.72 111.194,145.53 117.224,145.81 C117.234,146.78 117.254,147.77 117.274,148.77 C113.974,153.43 110.804,158.18 107.554,162.89 C100.474,161.43 93.414,157.3 90.314,150.53 C88.174,146.16 88.454,141.16 88.654,136.43 z" fill-opacity="0" stroke="#AE0604" stroke-width="0.5"/>
      </g>
      <g>
        <path d="M218.014,136.75 C222.064,135.11 227.194,136.87 228.824,141.08 C232.434,147.53 222.814,155.99 217.114,150.77 C211.954,147.57 212.744,139.36 218.014,136.75 z" fill="#F7B631"/>
        <path d="M218.014,136.75 C222.064,135.11 227.194,136.87 228.824,141.08 C232.434,147.53 222.814,155.99 217.114,150.77 C211.954,147.57 212.744,139.36 218.014,136.75 z" fill-opacity="0" stroke="#F7B631" stroke-width="0.5"/>
      </g>
      <g>
        <path d="M384.934,136.65 C388.994,135.29 394.774,136.14 395.984,140.94 C399.044,147.21 391.244,154.65 385.044,151.86 C382.694,150.61 380.874,148.4 379.974,145.92 C378.714,142.14 381.134,137.74 384.934,136.65 z" fill="#F7B631"/>
        <path d="M384.934,136.65 C388.994,135.29 394.774,136.14 395.984,140.94 C399.044,147.21 391.244,154.65 385.044,151.86 C382.694,150.61 380.874,148.4 379.974,145.92 C378.714,142.14 381.134,137.74 384.934,136.65 z" fill-opacity="0" stroke="#F7B631" stroke-width="0.5"/>
      </g>
      <g>
        <path d="M179.974,137.67 C185.264,135.8 190.234,142.2 188.484,147.15 C187.884,151.72 182.034,153.67 178.334,151.56 C176.114,149.92 174.454,147.22 174.594,144.41 C175.104,141.49 177.104,138.65 179.974,137.67 z" fill="#F7B631"/>
        <path d="M179.974,137.67 C185.264,135.8 190.234,142.2 188.484,147.15 C187.884,151.72 182.034,153.67 178.334,151.56 C176.114,149.92 174.454,147.22 174.594,144.41 C175.104,141.49 177.104,138.65 179.974,137.67 z" fill-opacity="0" stroke="#F7B631" stroke-width="0.5"/>
      </g>
      <g>
        <path d="M150.974,145.7 C153.504,144.93 156.484,144.78 158.864,146.08 C163.134,149.29 162.104,157.13 156.754,158.57 C152.314,160.65 147.064,156.18 147.764,151.52 C148.124,149.36 148.834,146.71 150.974,145.7 z" fill="#F7B631"/>
        <path d="M150.974,145.7 C153.504,144.93 156.484,144.78 158.864,146.08 C163.134,149.29 162.104,157.13 156.754,158.57 C152.314,160.65 147.064,156.18 147.764,151.52 C148.124,149.36 148.834,146.71 150.974,145.7 z" fill-opacity="0" stroke="#F7B631" stroke-width="0.5"/>
      </g>
      <g>
        <path d="M247.064,147.79 C251.874,145.72 258.344,149.91 257.794,155.33 C258.354,160.37 252.664,164.49 247.994,162.96 C244.294,161.98 240.954,158.44 241.574,154.42 C242.164,151.49 244.574,149.24 247.064,147.79 z" fill="#F7B631"/>
        <path d="M247.064,147.79 C251.874,145.72 258.344,149.91 257.794,155.33 C258.354,160.37 252.664,164.49 247.994,162.96 C244.294,161.98 240.954,158.44 241.574,154.42 C242.164,151.49 244.574,149.24 247.064,147.79 z" fill-opacity="0" stroke="#F7B631" stroke-width="0.5"/>
      </g>
      <g>
        <path d="M279.904,153.81 C284.284,153.83 289.564,157.3 288.684,162.31 C289.124,168.4 281.034,171.97 276.394,168.58 C273.314,166.69 272.574,162.58 273.424,159.3 C274.034,156.23 277.144,154.57 279.904,153.81 z" fill="#F7B631"/>
        <path d="M279.904,153.81 C284.284,153.83 289.564,157.3 288.684,162.31 C289.124,168.4 281.034,171.97 276.394,168.58 C273.314,166.69 272.574,162.58 273.424,159.3 C274.034,156.23 277.144,154.57 279.904,153.81 z" fill-opacity="0" stroke="#F7B631" stroke-width="0.5"/>
      </g>
      <g>
        <path d="M54.104,160.87 C57.234,157.37 61.894,155.19 66.584,155.06 C68.434,155.14 71.104,155.28 71.634,157.49 C72.824,160.91 72.324,164.99 70.194,167.95 C66.534,172.48 60.644,174.74 54.894,174.58 C53.614,173.52 52.374,172.42 51.094,171.39 C51.524,167.78 51.514,163.72 54.104,160.87 z" fill="#FFA158"/>
        <path d="M54.104,160.87 C57.234,157.37 61.894,155.19 66.584,155.06 C68.434,155.14 71.104,155.28 71.634,157.49 C72.824,160.91 72.324,164.99 70.194,167.95 C66.534,172.48 60.644,174.74 54.894,174.58 C53.614,173.52 52.374,172.42 51.094,171.39 C51.524,167.78 51.514,163.72 54.104,160.87 z" fill-opacity="0" stroke="#FFA158" stroke-width="0.5"/>
      </g>
      <g>
        <path d="M344.904,156.8 C348.564,156.61 352.454,159.58 352.684,163.41 C353.474,167.17 350.884,170.99 347.344,172.16 C342.744,173.28 337.214,169.33 337.634,164.4 C337.754,160.45 341.354,157.68 344.904,156.8 z" fill="#F7B631"/>
        <path d="M344.904,156.8 C348.564,156.61 352.454,159.58 352.684,163.41 C353.474,167.17 350.884,170.99 347.344,172.16 C342.744,173.28 337.214,169.33 337.634,164.4 C337.754,160.45 341.354,157.68 344.904,156.8 z" fill-opacity="0" stroke="#F7B631" stroke-width="0.5"/>
      </g>
      <g>
        <path d="M370.024,162.8 C372.294,161.99 374.874,162.01 377.164,162.74 C379.684,164.61 381.474,167.46 382.334,170.45 C382.064,175.03 378.264,179.4 373.614,179.86 C371.174,179.61 368.744,178.59 366.954,176.92 C363.734,172.49 364.794,165.21 370.024,162.8 z" fill="#F7B631"/>
        <path d="M370.024,162.8 C372.294,161.99 374.874,162.01 377.164,162.74 C379.684,164.61 381.474,167.46 382.334,170.45 C382.064,175.03 378.264,179.4 373.614,179.86 C371.174,179.61 368.744,178.59 366.954,176.92 C363.734,172.49 364.794,165.21 370.024,162.8 z" fill-opacity="0" stroke="#F7B631" stroke-width="0.5"/>
      </g>
      <g>
        <path d="M315.974,163.7 C321.444,162.19 327.024,167.56 325.474,173.12 C325.034,180.68 312.224,181.48 310.574,174.24 C308.654,169.97 311.704,164.93 315.974,163.7 z" fill="#F7B631"/>
        <path d="M315.974,163.7 C321.444,162.19 327.024,167.56 325.474,173.12 C325.034,180.68 312.224,181.48 310.574,174.24 C308.654,169.97 311.704,164.93 315.974,163.7 z" fill-opacity="0" stroke="#F7B631" stroke-width="0.5"/>
      </g>
      <g>
        <path d="M182.054,164.75 C187.194,163.31 193.254,169.27 190.824,174.51 C189.114,180.84 179.214,180.7 176.924,174.96 C175.304,170.78 177.944,166.12 182.054,164.75 z" fill="#F7B631"/>
        <path d="M182.054,164.75 C187.194,163.31 193.254,169.27 190.824,174.51 C189.114,180.84 179.214,180.7 176.924,174.96 C175.304,170.78 177.944,166.12 182.054,164.75 z" fill-opacity="0" stroke="#F7B631" stroke-width="0.5"/>
      </g>
      <g>
        <path d="M231.034,164.75 C236.214,162.54 242.774,168.31 241.044,173.75 C240.104,178.5 233.544,181.56 229.564,178.41 C224.804,175.33 225.424,166.6 231.034,164.75 z" fill="#F7B631"/>
        <path d="M231.034,164.75 C236.214,162.54 242.774,168.31 241.044,173.75 C240.104,178.5 233.544,181.56 229.564,178.41 C224.804,175.33 225.424,166.6 231.034,164.75 z" fill-opacity="0" stroke="#F7B631" stroke-width="0.5"/>
      </g>
      <g>
        <path d="M47.964,169.04 C49.024,169.79 50.074,170.57 51.094,171.39 C52.374,172.42 53.614,173.52 54.894,174.58 C64.504,177.49 74.554,178.89 84.594,178.42 C89.004,178.65 93.914,177.32 97.894,179.79 C94.214,185.9 90.564,192.05 87.964,198.72 C77.914,198.39 67.564,197.22 58.574,192.38 C54.684,190.35 51.694,186.97 49.474,183.24 C49.034,182.2 48.624,181.16 48.254,180.12 C47.454,177.65 46.664,175.1 46.764,172.48 C47.144,171.32 47.544,170.17 47.964,169.04 z" fill="#AE0604"/>
        <path d="M47.964,169.04 C49.024,169.79 50.074,170.57 51.094,171.39 C52.374,172.42 53.614,173.52 54.894,174.58 C64.504,177.49 74.554,178.89 84.594,178.42 C89.004,178.65 93.914,177.32 97.894,179.79 C94.214,185.9 90.564,192.05 87.964,198.72 C77.914,198.39 67.564,197.22 58.574,192.38 C54.684,190.35 51.694,186.97 49.474,183.24 C49.034,182.2 48.624,181.16 48.254,180.12 C47.454,177.65 46.664,175.1 46.764,172.48 C47.144,171.32 47.544,170.17 47.964,169.04 z" fill-opacity="0" stroke="#AE0604" stroke-width="0.5"/>
      </g>
      <g>
        <path d="M156.004,172.74 C159.474,171.53 164.524,171.89 166.154,175.75 C167.204,178.89 167.154,182.97 164.754,185.5 C161.594,187.81 156.794,187.66 153.834,185.08 C150.474,181.49 151.654,174.96 156.004,172.74 z" fill="#F7B631"/>
        <path d="M156.004,172.74 C159.474,171.53 164.524,171.89 166.154,175.75 C167.204,178.89 167.154,182.97 164.754,185.5 C161.594,187.81 156.794,187.66 153.834,185.08 C150.474,181.49 151.654,174.96 156.004,172.74 z" fill-opacity="0" stroke="#F7B631" stroke-width="0.5"/>
      </g>
      <g>
        <path d="M202.724,174.86 C205.674,174.69 208.864,176.04 210.234,178.77 C212.754,182.97 210.024,189.07 205.184,189.97 C199.604,191.97 194.074,185.17 196.224,179.99 C197.344,177.36 199.794,175.1 202.724,174.86 z" fill="#F7B631"/>
        <path d="M202.724,174.86 C205.674,174.69 208.864,176.04 210.234,178.77 C212.754,182.97 210.024,189.07 205.184,189.97 C199.604,191.97 194.074,185.17 196.224,179.99 C197.344,177.36 199.794,175.1 202.724,174.86 z" fill-opacity="0" stroke="#F7B631" stroke-width="0.5"/>
      </g>
      <g>
        <path d="M35.254,189.12 C38.864,185.19 43.314,182.13 48.254,180.12 C48.624,181.16 49.034,182.2 49.474,183.24 C44.714,185.14 39.974,187.12 35.254,189.12 z" fill="#663725"/>
        <path d="M35.254,189.12 C38.864,185.19 43.314,182.13 48.254,180.12 C48.624,181.16 49.034,182.2 49.474,183.24 C44.714,185.14 39.974,187.12 35.254,189.12 z" fill-opacity="0" stroke="#663725" stroke-width="0.5"/>
      </g>
      <g>
        <path d="M128.054,181.75 C133.944,179.69 140.604,186.94 137.954,192.68 C136.284,196.92 130.884,199.36 126.704,197.29 C123.854,195.79 121.704,192.65 121.644,189.41 C122.164,185.95 124.934,183.12 128.054,181.75 z" fill="#F7B631"/>
        <path d="M128.054,181.75 C133.944,179.69 140.604,186.94 137.954,192.68 C136.284,196.92 130.884,199.36 126.704,197.29 C123.854,195.79 121.704,192.65 121.644,189.41 C122.164,185.95 124.934,183.12 128.054,181.75 z" fill-opacity="0" stroke="#F7B631" stroke-width="0.5"/>
      </g>
      <g>
        <path d="M35.254,189.12 C39.974,187.12 44.714,185.14 49.474,183.24 C51.694,186.97 54.684,190.35 58.574,192.38 C67.564,197.22 77.914,198.39 87.964,198.72 C86.444,202.48 84.924,206.23 83.174,209.9 C79.974,216.43 78.164,223.51 75.924,230.4 C75.864,229.72 75.754,228.36 75.694,227.68 C67.714,226.2 59.784,224.43 51.774,223.13 C46.394,222.25 40.974,221.17 36.004,218.84 C31.644,216.84 28.984,212.66 25.984,209.13 C25.964,211.29 25.924,213.47 25.994,215.65 C25.314,213.08 24.534,210.4 25.024,207.73 C26.484,200.69 29.684,193.83 35.254,189.12 M32.664,206.28 C32.474,207.87 31.754,209.62 32.604,211.15 C34.654,215.42 38.324,220.04 43.624,219.44 C44.304,212.77 38.764,207.62 32.664,206.28 z" fill="#945025"/>
        <path d="M35.254,189.12 C39.974,187.12 44.714,185.14 49.474,183.24 C51.694,186.97 54.684,190.35 58.574,192.38 C67.564,197.22 77.914,198.39 87.964,198.72 C86.444,202.48 84.924,206.23 83.174,209.9 C79.974,216.43 78.164,223.51 75.924,230.4 C75.864,229.72 75.754,228.36 75.694,227.68 C67.714,226.2 59.784,224.43 51.774,223.13 C46.394,222.25 40.974,221.17 36.004,218.84 C31.644,216.84 28.984,212.66 25.984,209.13 C25.964,211.29 25.924,213.47 25.994,215.65 C25.314,213.08 24.534,210.4 25.024,207.73 C26.484,200.69 29.684,193.83 35.254,189.12 M32.664,206.28 C32.474,207.87 31.754,209.62 32.604,211.15 C34.654,215.42 38.324,220.04 43.624,219.44 C44.304,212.77 38.764,207.62 32.664,206.28 z" fill-opacity="0" stroke="#945025" stroke-width="0.5"/>
      </g>
      <g>
        <path d="M347.004,183.76 C352.064,181.53 359.524,184.2 359.694,190.35 C360.564,197.67 349.334,201.45 345.104,195.83 C342.394,192.32 342.604,185.83 347.004,183.76 z" fill="#F7B631"/>
        <path d="M347.004,183.76 C352.064,181.53 359.524,184.2 359.694,190.35 C360.564,197.67 349.334,201.45 345.104,195.83 C342.394,192.32 342.604,185.83 347.004,183.76 z" fill-opacity="0" stroke="#F7B631" stroke-width="0.5"/>
      </g>
      <g>
        <path d="M382.954,183.7 C388.574,182.28 393.764,187.67 393.374,193.11 C392.044,196.76 389.024,200.97 384.614,200.45 C380.224,200.53 376.364,196.71 376.444,192.31 C376.044,188.29 378.784,184.14 382.954,183.7 z" fill="#F7B631"/>
        <path d="M382.954,183.7 C388.574,182.28 393.764,187.67 393.374,193.11 C392.044,196.76 389.024,200.97 384.614,200.45 C380.224,200.53 376.364,196.71 376.444,192.31 C376.044,188.29 378.784,184.14 382.954,183.7 z" fill-opacity="0" stroke="#F7B631" stroke-width="0.5"/>
      </g>
      <g>
        <path d="M304.924,185.74 C308.314,185.37 312.824,186.33 313.794,190.13 C316.184,195.47 312.184,203.82 305.594,202.44 C298.544,202.2 296.314,192.72 300.054,187.78 C301.414,186.62 303.174,186 304.924,185.74 z" fill="#F7B631"/>
        <path d="M304.924,185.74 C308.314,185.37 312.824,186.33 313.794,190.13 C316.184,195.47 312.184,203.82 305.594,202.44 C298.544,202.2 296.314,192.72 300.054,187.78 C301.414,186.62 303.174,186 304.924,185.74 z" fill-opacity="0" stroke="#F7B631" stroke-width="0.5"/>
      </g>
      <g>
        <path d="M273.924,186.71 C279.354,185.61 283.254,191.38 283.304,196.22 C282.974,199.35 280.984,202.95 277.544,203.33 C275.374,203.63 273.074,203.68 271.004,202.91 C267.164,200.89 265.474,195.77 267.054,191.79 C268.404,189.18 271.064,187.29 273.924,186.71 z" fill="#F7B631"/>
        <path d="M273.924,186.71 C279.354,185.61 283.254,191.38 283.304,196.22 C282.974,199.35 280.984,202.95 277.544,203.33 C275.374,203.63 273.074,203.68 271.004,202.91 C267.164,200.89 265.474,195.77 267.054,191.79 C268.404,189.18 271.064,187.29 273.924,186.71 z" fill-opacity="0" stroke="#F7B631" stroke-width="0.5"/>
      </g>
      <g>
        <path d="M171.974,191.72 C176.484,190.01 183.454,191.66 183.654,197.41 C184.854,204.11 175.594,207.99 170.874,204.01 C167.094,200.9 167.894,194.17 171.974,191.72 z" fill="#F7B631"/>
        <path d="M171.974,191.72 C176.484,190.01 183.454,191.66 183.654,197.41 C184.854,204.11 175.594,207.99 170.874,204.01 C167.094,200.9 167.894,194.17 171.974,191.72 z" fill-opacity="0" stroke="#F7B631" stroke-width="0.5"/>
      </g>
      <g>
        <path d="M226.924,194.65 C230.154,193.75 234.144,193.8 236.774,196.13 C239.054,198.74 239.204,202.73 238.174,205.91 C235.354,211.49 225.654,211.65 223.184,205.66 C220.844,201.84 223.194,196.52 226.924,194.65 z" fill="#F7B631"/>
        <path d="M226.924,194.65 C230.154,193.75 234.144,193.8 236.774,196.13 C239.054,198.74 239.204,202.73 238.174,205.91 C235.354,211.49 225.654,211.65 223.184,205.66 C220.844,201.84 223.194,196.52 226.924,194.65 z" fill-opacity="0" stroke="#F7B631" stroke-width="0.5"/>
      </g>
      <g>
        <path d="M370.974,197.73 C375.744,196.47 380.964,200.27 380.684,205.35 C381.484,211.55 373.614,215.17 368.674,212.25 C365.294,211.23 365.144,207.23 365.394,204.32 C365.414,201.11 368.074,198.6 370.974,197.73 z" fill="#F7B631"/>
        <path d="M370.974,197.73 C375.744,196.47 380.964,200.27 380.684,205.35 C381.484,211.55 373.614,215.17 368.674,212.25 C365.294,211.23 365.144,207.23 365.394,204.32 C365.414,201.11 368.074,198.6 370.974,197.73 z" fill-opacity="0" stroke="#F7B631" stroke-width="0.5"/>
      </g>
      <g>
        <path d="M128.034,205.78 C130.894,204.61 134.404,205.16 136.844,207.03 C138.784,208.47 138.814,211.14 138.844,213.33 C138.844,215.91 138.134,219.25 135.244,220 C132.014,220.89 128.014,220.88 125.384,218.53 C121.924,214.7 123.174,207.84 128.034,205.78 z" fill="#F7B631"/>
        <path d="M128.034,205.78 C130.894,204.61 134.404,205.16 136.844,207.03 C138.784,208.47 138.814,211.14 138.844,213.33 C138.844,215.91 138.134,219.25 135.244,220 C132.014,220.89 128.014,220.88 125.384,218.53 C121.924,214.7 123.174,207.84 128.034,205.78 z" fill-opacity="0" stroke="#F7B631" stroke-width="0.5"/>
      </g>
      <g>
        <path d="M255.994,205.73 C258.584,204.78 261.574,204.78 264.174,205.72 C267.684,207.58 269.934,212.52 267.234,215.98 C264.354,221.26 255.744,221.33 253.004,215.92 C251.864,212.43 252.184,207.42 255.994,205.73 z" fill="#F7B631"/>
        <path d="M255.994,205.73 C258.584,204.78 261.574,204.78 264.174,205.72 C267.684,207.58 269.934,212.52 267.234,215.98 C264.354,221.26 255.744,221.33 253.004,215.92 C251.864,212.43 252.184,207.42 255.994,205.73 z" fill-opacity="0" stroke="#F7B631" stroke-width="0.5"/>
      </g>
      <g>
        <path d="M32.664,206.28 C38.764,207.62 44.304,212.77 43.624,219.44 C38.324,220.04 34.654,215.42 32.604,211.15 C31.754,209.62 32.474,207.87 32.664,206.28 z" fill="#E0A44A"/>
        <path d="M32.664,206.28 C38.764,207.62 44.304,212.77 43.624,219.44 C38.324,220.04 34.654,215.42 32.604,211.15 C31.754,209.62 32.474,207.87 32.664,206.28 z" fill-opacity="0" stroke="#E0A44A" stroke-width="0.5"/>
      </g>
      <g>
        <path d="M286.924,208.71 C292.164,207.6 298.104,213.46 294.794,218.55 C292.104,223.77 284.084,223.72 281.374,218.55 C278.584,214.33 282.374,209.17 286.924,208.71 z" fill="#F7B631"/>
        <path d="M286.924,208.71 C292.164,207.6 298.104,213.46 294.794,218.55 C292.104,223.77 284.084,223.72 281.374,218.55 C278.584,214.33 282.374,209.17 286.924,208.71 z" fill-opacity="0" stroke="#F7B631" stroke-width="0.5"/>
      </g>
      <g>
        <path d="M25.984,209.13 C28.984,212.66 31.644,216.84 36.004,218.84 C40.974,221.17 46.394,222.25 51.774,223.13 C59.784,224.43 67.714,226.2 75.694,227.68 C75.754,228.36 75.864,229.72 75.924,230.4 C74.384,235.47 73.184,240.64 71.864,245.78 C65.734,245.67 60.224,242.75 54.324,241.53 C47.374,240.85 41.784,245.99 35.384,247.8 C37.924,243.51 41.614,240.1 45.204,236.7 C37.244,231.45 28.034,225.76 25.994,215.65 C25.924,213.47 25.964,211.29 25.984,209.13 z" fill="#663725"/>
        <path d="M25.984,209.13 C28.984,212.66 31.644,216.84 36.004,218.84 C40.974,221.17 46.394,222.25 51.774,223.13 C59.784,224.43 67.714,226.2 75.694,227.68 C75.754,228.36 75.864,229.72 75.924,230.4 C74.384,235.47 73.184,240.64 71.864,245.78 C65.734,245.67 60.224,242.75 54.324,241.53 C47.374,240.85 41.784,245.99 35.384,247.8 C37.924,243.51 41.614,240.1 45.204,236.7 C37.244,231.45 28.034,225.76 25.994,215.65 C25.924,213.47 25.964,211.29 25.984,209.13 z" fill-opacity="0" stroke="#663725" stroke-width="0.5"/>
      </g>
      <g>
        <path d="M192.004,212.71 C196.304,211.1 202.494,213.14 202.614,218.41 C203.984,224.21 197.374,229.35 192.014,226.94 C187.314,223.6 187.334,216.05 192.004,212.71 z" fill="#F7B631"/>
        <path d="M192.004,212.71 C196.304,211.1 202.494,213.14 202.614,218.41 C203.984,224.21 197.374,229.35 192.014,226.94 C187.314,223.6 187.334,216.05 192.004,212.71 z" fill-opacity="0" stroke="#F7B631" stroke-width="0.5"/>
      </g>
      <g>
        <path d="M353.024,214.75 C358.144,212.37 364.404,216.15 365.564,221.41 C366.434,227.74 359.124,233.51 353.234,230.65 C346.534,228.27 346.774,217.52 353.024,214.75 z" fill="#F7B631"/>
        <path d="M353.024,214.75 C358.144,212.37 364.404,216.15 365.564,221.41 C366.434,227.74 359.124,233.51 353.234,230.65 C346.534,228.27 346.774,217.52 353.024,214.75 z" fill-opacity="0" stroke="#F7B631" stroke-width="0.5"/>
      </g>
      <g>
        <path d="M213.994,216.72 C217.754,215.4 223.074,215.96 225.014,219.94 C228.134,224.46 223.974,231.64 218.574,231.53 C214.764,232.18 210.944,229.68 209.734,226.1 C208.794,222.49 210.794,218.48 213.994,216.72 z" fill="#F7B631"/>
        <path d="M213.994,216.72 C217.754,215.4 223.074,215.96 225.014,219.94 C228.134,224.46 223.974,231.64 218.574,231.53 C214.764,232.18 210.944,229.68 209.734,226.1 C208.794,222.49 210.794,218.48 213.994,216.72 z" fill-opacity="0" stroke="#F7B631" stroke-width="0.5"/>
      </g>
      <g>
        <path d="M162.004,220.76 C164.294,220 166.874,220.02 169.164,220.78 C173.254,222.83 175.334,229.14 171.904,232.67 C169.934,234.76 167.014,236.94 163.984,235.96 C161.294,234.89 158.764,232.86 157.704,230.11 C156.804,226.52 158.784,222.48 162.004,220.76 z" fill="#F7B631"/>
        <path d="M162.004,220.76 C164.294,220 166.874,220.02 169.164,220.78 C173.254,222.83 175.334,229.14 171.904,232.67 C169.934,234.76 167.014,236.94 163.984,235.96 C161.294,234.89 158.764,232.86 157.704,230.11 C156.804,226.52 158.784,222.48 162.004,220.76 z" fill-opacity="0" stroke="#F7B631" stroke-width="0.5"/>
      </g>
      <g>
        <path d="M100.044,222.76 C102.894,221.75 106.264,222.52 108.744,224.16 C110.684,226.43 111.324,229.69 110.904,232.62 C110.424,236.26 106.834,238.57 103.504,239.31 C100.684,239.5 97.994,237.76 96.364,235.58 C94.084,231.25 95.284,224.88 100.044,222.76 z" fill="#F7B631"/>
        <path d="M100.044,222.76 C102.894,221.75 106.264,222.52 108.744,224.16 C110.684,226.43 111.324,229.69 110.904,232.62 C110.424,236.26 106.834,238.57 103.504,239.31 C100.684,239.5 97.994,237.76 96.364,235.58 C94.084,231.25 95.284,224.88 100.044,222.76 z" fill-opacity="0" stroke="#F7B631" stroke-width="0.5"/>
      </g>
      <g>
        <path d="M260.974,224.66 C264.494,223.64 268.574,225.24 270.814,228.08 C273.204,232.64 271.364,239.27 266.144,240.88 C260.864,243.24 255.234,238.47 254.584,233.27 C254.434,229.39 257.444,225.93 260.974,224.66 z" fill="#F7B631"/>
        <path d="M260.974,224.66 C264.494,223.64 268.574,225.24 270.814,228.08 C273.204,232.64 271.364,239.27 266.144,240.88 C260.864,243.24 255.234,238.47 254.584,233.27 C254.434,229.39 257.444,225.93 260.974,224.66 z" fill-opacity="0" stroke="#F7B631" stroke-width="0.5"/>
      </g>
      <g>
        <path d="M131.944,227.67 C134.614,226.86 137.924,226.89 140.154,228.76 C143.604,232.88 141.604,241.26 135.494,241.32 C128.134,242.47 124.414,230.16 131.944,227.67 z" fill="#F7B631"/>
        <path d="M131.944,227.67 C134.614,226.86 137.924,226.89 140.154,228.76 C143.604,232.88 141.604,241.26 135.494,241.32 C128.134,242.47 124.414,230.16 131.944,227.67 z" fill-opacity="0" stroke="#F7B631" stroke-width="0.5"/>
      </g>
      <g>
        <path d="M278.004,227.74 C280.354,226.92 282.974,226.91 285.394,227.46 C289.424,228.81 292.004,234.22 289.164,237.86 C287.024,243.51 278.274,243.47 275.704,238.24 C273.394,234.81 274.834,230.07 278.004,227.74 z" fill="#F7B631"/>
        <path d="M278.004,227.74 C280.354,226.92 282.974,226.91 285.394,227.46 C289.424,228.81 292.004,234.22 289.164,237.86 C287.024,243.51 278.274,243.47 275.704,238.24 C273.394,234.81 274.834,230.07 278.004,227.74 z" fill-opacity="0" stroke="#F7B631" stroke-width="0.5"/>
      </g>
      <g>
        <path d="M315.024,228.76 C319.504,226.58 325.604,230.05 324.784,235.33 C325.634,240.82 318.654,244.16 314.344,241.56 C311.894,239.79 310.094,236.62 310.714,233.55 C311.434,231.47 313.094,229.76 315.024,228.76 z" fill="#F7B631"/>
        <path d="M315.024,228.76 C319.504,226.58 325.604,230.05 324.784,235.33 C325.634,240.82 318.654,244.16 314.344,241.56 C311.894,239.79 310.094,236.62 310.714,233.55 C311.434,231.47 313.094,229.76 315.024,228.76 z" fill-opacity="0" stroke="#F7B631" stroke-width="0.5"/>
      </g>
      <g>
        <path d="M230.994,236.71 C233.494,235.86 236.514,235.75 238.864,237.07 C242.274,239.86 242.894,246.08 239.074,248.81 C235.984,251.29 230.494,251.21 228.374,247.51 C225.984,244 227.074,238.59 230.994,236.71 z" fill="#F7B631"/>
        <path d="M230.994,236.71 C233.494,235.86 236.514,235.75 238.864,237.07 C242.274,239.86 242.894,246.08 239.074,248.81 C235.984,251.29 230.494,251.21 228.374,247.51 C225.984,244 227.074,238.59 230.994,236.71 z" fill-opacity="0" stroke="#F7B631" stroke-width="0.5"/>
      </g>
      <g>
        <path d="M35.384,247.8 C41.784,245.99 47.374,240.85 54.324,241.53 C60.224,242.75 65.734,245.67 71.864,245.78 C70.184,255.52 68.114,265.21 66.894,275.04 C58.494,272.6 49.454,272.9 41.314,269.49 C36.774,267.56 34.314,263.01 31.424,259.3 C31.404,261.63 31.364,263.98 31.474,266.33 C29.074,259.9 32.374,253.38 35.384,247.8 M37.794,259.58 C38.274,265.53 43.714,270.53 49.704,270.54 C49.914,265.74 47.474,260.76 42.804,259.01 C41.194,258.56 38.734,257.55 37.794,259.58 z" fill="#945025"/>
        <path d="M35.384,247.8 C41.784,245.99 47.374,240.85 54.324,241.53 C60.224,242.75 65.734,245.67 71.864,245.78 C70.184,255.52 68.114,265.21 66.894,275.04 C58.494,272.6 49.454,272.9 41.314,269.49 C36.774,267.56 34.314,263.01 31.424,259.3 C31.404,261.63 31.364,263.98 31.474,266.33 C29.074,259.9 32.374,253.38 35.384,247.8 M37.794,259.58 C38.274,265.53 43.714,270.53 49.704,270.54 C49.914,265.74 47.474,260.76 42.804,259.01 C41.194,258.56 38.734,257.55 37.794,259.58 z" fill-opacity="0" stroke="#945025" stroke-width="0.5"/>
      </g>
      <g>
        <path d="M315.184,245.92 C318.144,245.47 321.074,246.49 323.944,247.12 C324.684,250.14 326.094,253.41 324.794,256.5 C322.874,261.51 315.374,263.15 311.664,259.17 C309.394,257.32 309.144,254.27 309.254,251.57 C310.724,249.29 312.284,246.49 315.184,245.92 z" fill="#EEA523"/>
        <path d="M315.184,245.92 C318.144,245.47 321.074,246.49 323.944,247.12 C324.684,250.14 326.094,253.41 324.794,256.5 C322.874,261.51 315.374,263.15 311.664,259.17 C309.394,257.32 309.144,254.27 309.254,251.57 C310.724,249.29 312.284,246.49 315.184,245.92 z" fill-opacity="0" stroke="#EEA523" stroke-width="0.5"/>
      </g>
      <g>
        <path d="M130.954,249.63 C135.284,248.63 139.474,252.39 140.374,256.45 C140.314,259.39 138.044,261.85 135.794,263.53 C131.254,266.45 125.344,261.99 124.634,257.26 C124.624,253.71 127.594,250.47 130.954,249.63 z" fill="#F7B631"/>
        <path d="M130.954,249.63 C135.284,248.63 139.474,252.39 140.374,256.45 C140.314,259.39 138.044,261.85 135.794,263.53 C131.254,266.45 125.344,261.99 124.634,257.26 C124.624,253.71 127.594,250.47 130.954,249.63 z" fill-opacity="0" stroke="#F7B631" stroke-width="0.5"/>
      </g>
      <g>
        <path d="M189.934,252.67 C192.474,251.95 195.454,251.79 197.834,253.1 C202.934,256.87 200.234,266.8 193.564,266.5 C189.284,267.36 185.734,263.32 185.534,259.34 C185.504,256.52 187.304,253.69 189.934,252.67 z" fill="#F7B631"/>
        <path d="M189.934,252.67 C192.474,251.95 195.454,251.79 197.834,253.1 C202.934,256.87 200.234,266.8 193.564,266.5 C189.284,267.36 185.734,263.32 185.534,259.34 C185.504,256.52 187.304,253.69 189.934,252.67 z" fill-opacity="0" stroke="#F7B631" stroke-width="0.5"/>
      </g>
      <g>
        <path d="M230.004,252.75 C233.074,251.79 236.704,251.77 239.604,253.32 C242.144,255.39 241.964,259.22 241.454,262.17 C240.614,267.89 232.224,269.21 228.704,265.2 C225.284,261.98 225.384,254.84 230.004,252.75 z" fill="#F7B631"/>
        <path d="M230.004,252.75 C233.074,251.79 236.704,251.77 239.604,253.32 C242.144,255.39 241.964,259.22 241.454,262.17 C240.614,267.89 232.224,269.21 228.704,265.2 C225.284,261.98 225.384,254.84 230.004,252.75 z" fill-opacity="0" stroke="#F7B631" stroke-width="0.5"/>
      </g>
      <g>
        <path d="M155.054,253.77 C160.574,251.37 167.614,258.08 164.934,263.69 C163.164,268.26 156.784,269.87 152.934,266.96 C151.114,265.31 149.934,262.88 149.784,260.43 C150.494,257.61 152.544,255.17 155.054,253.77 z" fill="#F7B631"/>
        <path d="M155.054,253.77 C160.574,251.37 167.614,258.08 164.934,263.69 C163.164,268.26 156.784,269.87 152.934,266.96 C151.114,265.31 149.934,262.88 149.784,260.43 C150.494,257.61 152.544,255.17 155.054,253.77 z" fill-opacity="0" stroke="#F7B631" stroke-width="0.5"/>
      </g>
      <g>
        <path d="M37.794,259.58 C38.734,257.55 41.194,258.56 42.804,259.01 C47.474,260.76 49.914,265.74 49.704,270.54 C43.714,270.53 38.274,265.53 37.794,259.58 z" fill="#E0A44A"/>
        <path d="M37.794,259.58 C38.734,257.55 41.194,258.56 42.804,259.01 C47.474,260.76 49.914,265.74 49.704,270.54 C43.714,270.53 38.274,265.53 37.794,259.58 z" fill-opacity="0" stroke="#E0A44A" stroke-width="0.5"/>
      </g>
      <g>
        <path d="M31.424,259.3 C34.314,263.01 36.774,267.56 41.314,269.49 C49.454,272.9 58.494,272.6 66.894,275.04 C66.434,281.03 65.654,287.05 63.744,292.79 C56.064,291.43 49.714,286.71 43.344,282.55 C37.594,278.77 34.014,272.55 31.474,266.33 C31.364,263.98 31.404,261.63 31.424,259.3 z" fill="#663725"/>
        <path d="M31.424,259.3 C34.314,263.01 36.774,267.56 41.314,269.49 C49.454,272.9 58.494,272.6 66.894,275.04 C66.434,281.03 65.654,287.05 63.744,292.79 C56.064,291.43 49.714,286.71 43.344,282.55 C37.594,278.77 34.014,272.55 31.474,266.33 C31.364,263.98 31.404,261.63 31.424,259.3 z" fill-opacity="0" stroke="#663725" stroke-width="0.5"/>
      </g>
      <g>
        <path d="M95.984,261.71 C98.504,260.89 101.464,260.82 103.874,262.02 C105.624,263.57 106.104,266.1 106.174,268.35 C106.324,271.97 102.964,274.81 99.584,275.23 C97.374,274.95 95.404,273.61 93.984,271.95 C91.334,268.9 92.564,263.62 95.984,261.71 z" fill="#F7B631"/>
        <path d="M95.984,261.71 C98.504,260.89 101.464,260.82 103.874,262.02 C105.624,263.57 106.104,266.1 106.174,268.35 C106.324,271.97 102.964,274.81 99.584,275.23 C97.374,274.95 95.404,273.61 93.984,271.95 C91.334,268.9 92.564,263.62 95.984,261.71 z" fill-opacity="0" stroke="#F7B631" stroke-width="0.5"/>
      </g>
      <g>
        <path d="M252.274,267.12 C256.524,263.12 262.664,261.92 268.324,262.6 C268.364,264.67 268.884,266.86 268.204,268.89 C266.074,272.88 260.504,274.72 256.544,272.36 C254.714,270.99 253.594,268.92 252.274,267.12 z" fill="#EEA523"/>
        <path d="M252.274,267.12 C256.524,263.12 262.664,261.92 268.324,262.6 C268.364,264.67 268.884,266.86 268.204,268.89 C266.074,272.88 260.504,274.72 256.544,272.36 C254.714,270.99 253.594,268.92 252.274,267.12 z" fill-opacity="0" stroke="#EEA523" stroke-width="0.5"/>
      </g>
    </g>
  </g>
</svg>
